<mxfile host="Electron" agent="Mozilla/5.0 (Windows NT 10.0; Win64; x64) AppleWebKit/537.36 (KHTML, like Gecko) draw.io/27.0.9 Chrome/134.0.6998.205 Electron/35.4.0 Safari/537.36" version="27.0.9">
  <diagram name="PÃ¡gina-1" id="mfCk_DlqDY_pnrmiNqyw">
    <mxGraphModel dx="1615" dy="1720" grid="1" gridSize="10" guides="1" tooltips="1" connect="1" arrows="1" fold="1" page="1" pageScale="1" pageWidth="827" pageHeight="1169" math="0" shadow="0">
      <root>
        <mxCell id="0" />
        <mxCell id="1" parent="0" />
        <mxCell id="K0F5Ke0ie21A7ef-z0Ci-1" value="" style="shape=image;imageAspect=0;aspect=fixed;verticalLabelPosition=bottom;verticalAlign=top;image=data:image/png,iVBORw0KGgoAAAANSUhEUgAAAtIAAADQCAYAAAAqPYaIAAAAAXNSR0IArs4c6QAAAARnQU1BAACxjwv8YQUAAAAJcEhZcwAADsMAAA7DAcdvqGQAANXySURBVHhe7J13XFRX+v8/zAxdEDQxIlFAcQzGAsE12Asa1sS6RjEQFTubBEuIUTEqooY1+RoTk6yiETW2hF9c1xIhllBEmihIE1xEinRhBgWkzL3P74+hDlMYxETjeb9evF46957nPOdp59x7z53RISICg8FgMBgMBoPB0AqB4gcMBoPBYDAYDAZDM2whzWAwGAwGg8FgdAC2kGYwGAwGg8FgMDoAW0gzGAwGg8FgMBgdgC2kGQwGg8FgMBiMDsAW0gwGg8FgMBgMRgdgC+nnAf4RspIzIeUVD7QDxbZVOUi4lYcahdM6A/5RFpIzpeiImh2jBvnJt1H8BB1W5STgVt7TsIYmnlx3OVXISbiFP34IPB5lJSOzQ0GpjM6W116elv2eltxGnrZ87WibR50V388+inWvrS0U+bNivZFnK3Y6hmJ8/RXGpAkOkjvJuFel+PmfzVOIZ8V1yzNOuxbSfGEMfv5mNf4xbjRGj5mGD/7vGK7mcA1Ha5H5eyC2L/07xji747MDV5BZqyCA0UE45P2+Cx7DbfC6636kyxSPq0NZWx7Z+xdgxMhlOFLUiRHK5eH3XR4YbvM6XPenQys1OwQPacIxfOxsC9vx2xFZp3i8nfDZ2L9gBEYuO4LONId6Okn3Bvjs/VgwYiSWHSlqcwFTe3UjRg4Yi09CStocexK4vN+xy2M4bF53xX7tglIpnS1PG9TZ70l4WnIbaSn/T6dVHnVufD/TKKt7GmrKnxnrjTzt2Hy6KI+v53tMmuFyfseuBW/AZsgSHG9ae/35dH48K1u3PAdQe5Gl0va/6ZJI/DFF1ioeJHp8fim9sfQ8VSkeYDwhtRT5sZj0X1tL0Ursrh4lbSuz6WZiLj1WOPOJqY2kj8X69NraaNJazQ7BUe43E0jf3I1+eYLBVGbfpMTcJxDQBEcl8dcpU6b4uTI6R3c5lZR9M5HaDqGWrn0yjEZsjCCp4qFOoDbyYxLrv0ZrtQ9KpXS2vPbT1n5cSTxdb58j1dBWbufytOVrR+s86sz4fsZRUvc01ZQ/L9YbebZiR3uUxdfzPibN1Pz+IVnrD6NtqU9amzqXzo9nJesWtWgz9z4d2nVHGgCg8xK6m+tAx8QMZkpaCbqa49WXukOkeIDxhAhhZmYKHcWP24WStsZWcBjaGwYtP+sMhGYwM+2Ylh1DAFMT4w7apRljKwcM7d0J1qiKxTebD+NOu66gO0d3OcawchiKNkPgcpHz6qc4sXUMuioc6gyEZmboTHd3trz2o2i/KsR+sxmH2+dINSjK7WyetnztaJ1HnRnfzzhK6p6mmvLnxXojz1bsaI+y+Hrex6QZobEJjJWsvf5sOj+elaxb1KHV3Pt0eIpuqUJucgbKeKCuOBVRUWkoURiorOwOYkOvIOx6FqTtelpRjYLkawiLuIGcRy0f4FQjL0m+X4qTZiE+KgG5jfuI6oqRFhWJWwWtN0/xj+4hNesReE6CzJgIxGZK0UqF6lwkp5eCqynArbh0lDcdVKUDD+ndWIRfTURuRRkKCltsZJKV4U5sKK6EXUdW+wYKyMqRGReOiIQ8PFY8BgDVBUi+FoaIGzlopQY0ta1BflKawmPHOpSkRyMsLBaZEgX9NOguK89EXHgEEvLa9qSpbVtkKLsTi9ArYbiepeAPJQh0lKSatn3W5CMpreXjQE1x29bPfGkM9ix8H7vispF4MQShKaUN8lSPR5nu6vNBtY9q8pOQ1uY5cne8Oaoncq+no0Tx8XpVLpIzysCjDsWpUYhKK2nndhwZyjPjEB6RAGXuVp0bqtAkj4MkKx5XI2KQ3mYQ1chNTkcpV4OCW3FIb0jQ6rwk3JYXAmTFRyGhuRCgOC0KkbcK2rwf0GQ/vhQxexbi/V1xyE68iJDQFJQ2DoOTICv+KiJilNhTRa1Q6hd1cngp7saG42piLirKCtCyhCijtkAuny9MxKWQYASHXEW6lAe4Atz4LRjBwb8h5l41+PLbiAgJRnBwMIJDIpFRwQN4hMxrvyE4OASRGdImmdUFybgWFoEbOY9aPSKvyk1GhjwpkBoVhTTFYq6QR8riG2rk89K7iA2/isTcCpQVFEL90FXnlXK0nx+gRldoqnttago0xrr63FdBVT6SIiMQfbsEtXXFyMp+pDEWGlEam6rmFBXxrW2+V+cmI72UQ03BLcSllzf7TVW/avysLL5ajaniDq791hDzLf5CIjMa9t2qlq16vM20184a80ab+UpHp2FxSZCV3kZMTCqKFMNWnTx19UWlD1ShPp61jQ0AGtYtynNE9dwLcJIsxF+NQEx6CdqWWm3qjWaewkKaR2ncEayeYAvxFH+cPLgcLu+4Yf479hg8MwCZHABwyDq2EE6zv8GtB0WI8neBePRWRDfHXxv4whBsW+aNgPAkXP/ZG6PFY7HxcikexB+D9yQx+o/zRdCpLXCf54HFs0fAzskbIfFH8cHUWVi0Yg6c7MZgS3Q1wOUh4tulGG41EG7fHsfWt97Am5MnYYSdGBP9rqGCL0FM4CpMsBVjsu8+7Hx3NEaOGI5FR8tU6CBfkCTt8YDXiTzIatIQ6O6Ed3/IhgwAl3UMC51m45tbD1AU5Q8X8WhsVTdQANXJ+zHfZSkOJuYj85wPvALutEh0HoUh27DMOwDhSdfxs/doiMduxOUyefiobstDknASn75li35jtyKiIQH50jDsWOCB/7ucg5KkbzFdPAxeZwrBa9S9Gsn758Nl6UEk5mfinI8XAu40a6m+rRK4LBxb6ITZ39zCg6Io+LuIMXprNNS0aINWffISJJz8FG/Z9sPYrRGoaVfcKvNzFh4UlMHQvAt4vhZVUikqqmVajkd9PqjykUySgJOfvgXbfmOxtdGhAKQxX8PDdT2CknORcdYbYwa6wC+0FDxfirgjqzHBVowp/idxcLkL3nGbj3fsB2NmQKb6BUl1MvbPd8HSg4nIzzwHH68AtHC3mtxQgQZ5kMbgaw9XrA9KRm7GWXiPGQgXv1CU8jxKYgKxaoItxJN9sW/nuxg9cgT+5u6Hvd6TIO4/Dr5Bp7DFfR48Fs/GCDsneIfE4+gHUzFr0QrMcbLDmC1yP/AK9uOlBSgzNEcXnkdtlRTSimrI1NpTea3w2BeqnV8AoC4Jezy8cCJPhpq0QLg7vYsfslVc3khv4ed1f0f/fiOx6fcaCLr1wavFP2L5jGU4mCYDhN3Qu0cG9rhPx8dBBSDj7tBP/zeWTJuBHTfN0MtYAMAIr3SJw+5d8RB1MwL4QoRsWwbvgHAkXf8Z3qPFGLvxMkqL43Bk9QTYiqfA/+RBLHd5B27z34H94JkIyOSU5JEKVMgv44G6pD3w8DqBPFkN0gLd4fTuD1A1dO3yike5tvMD1Ouqtu6psoXaWFef+8qpRuphT7wzfyd+S01HxFfz4GAzELP2p4PXEAv1SmuGijmltEhpfKufC9vCl8QgcNUE2Ionw3ffTrw7eiRGDF+Eo2Uq+i3jtfKzYh4DQN3tI9gREIv8cimkUikexO/DsumzseF8CYSkQraKfF50tEyxS405V1+qIW+0na+aIBT/6oWRDiPhPHowrO1m4Jv4SkCTPJX1RY0PVKE2njswF6hdt0BNjvCQKpt7IUXM1x5wXR+E5NwMnPUeg4EufghtuCuiVb1pL4p7PVTCFdPet/RI19GPUuoVDxLVXl1L09c37hOT0d0vR5Ge6TBadSaLaolI+os79dAfTV/elRHJbtPnbxqR49Zkqiei+rgNNMjAnjYnKBFM8r5Puk+g9TENG2a4HNo9To90HTZTQj1HBd85k76RE20ILyQZEdXe3ET2ul1pxLqLdL+eiOoTaJO9PvX1CqUaIqLaKPpkgC5ZTNxCIffriarS6MAsSxLqOZLvrXq5/PF6ZDh4FV0skVDq5RC6VVqoWoeqKPpkkD2ti5Fv0OKKjtP2b1OpnmR0+/M3ychxKyXLB0obBhmQ/eYEUjFSoqpIWjukLy06I2n4oJLOL7Ek3Yb9QlzxSXKfsJ6a1dhN4/R0yWFzAtVraEvEUeH3zqRvOpd+riIirpBOuNqSy/c5xBER1afQl+O6Ua+Fp6lSg+5VkWtpSN9F1NzVeVpiqduwV1B9W2XIbn9Obxo50lZ5A4rbMIgM7DeTqpAgInp4aBoZNO2T075P4grpe2d9Mp37c8Pefg1xW6vKz/IYNLBcShdq5KI1jaeV7uryQa2PiLjC78lZ35Tm/tzwdoLkAq0Q29Hq8MbNglUU6W1Hehbz6Kcijkh2l74cpUemw1bRmaxaIpLSL+49SH/0l3RX5R6zKopcO4T6LjpDze5eQpa6Dfvi1OZnSzmNaJBHErqwQkx2q8Ob9vJXRXqTnZ4FzfupiDjiKGf3eNIzHEyrLpaQJPUyhdwqo/qC78hZ34icNoRTobwQ0CZ7Xeo6Yh1dlBcCSthkT/p9vSi0wU+K9uMKviNnA0ta2uhITfZUVivKuDZyNcmpjfqEBtmvI3locVR0fDt9m6rUeHIeBNDf9Y3pH8cbIjdtOw03GECfXGvwQe01+mSAIY341/9IRkRUn0zb/mZIlovONOyZ56jg0Ie0NvgREXFUfNKdJqyPaajfHOXsHkd6ug60OaGeZHe/pFF6pjRs1RmSh8wv5N5Dn0Z/eVcuu00eKeamOvlVFPXJILJfFyP3NVdEx7d/S6qGrimv2qLt/KBO13oNdU+ZLTTEurrcV8Gj31fTIIe1dK3R2LVR9Mlr+jRoQxzVtyMWFGNT7ZyiLL7VzYUq1OZydtN4PUMavOoilUhS6XLILSotVN1vjQY/t46vtmOqTzlP59MbTn4URZ85diGzMf+ihBoNMaRsvGWcXI4CmuysPm+0n6/q4zbQID1Lmr4njspkRJXJB2iOtS7pD/OjpHr18lTVF7W+V+hfjoZ41nou0LzmUZ8jbedeyYUVJLZbTc2lNpK87fTIYt5PVMTValVv2kv770gLdKCjowOAQIrHAIDnAGGjOCG6dDGG0MQeLi420ANgLO6P3oIKSMsJEIrheSQCx72skRcWiJ2HYiDha/G4RsU1S3UYTofk4875XfD394f/zuN47OILvwWOMIQAXYyNoKNngzeG9YQQgJ7YFlYioPcbo2ApAiCyhlUvHVRIJHLdBYYwNBDi5ZEz4GwpAozs4LF1GewpGeHhxeAFhjDUE8B0mDPGvGyGgc4uGGIQoVoHkSXEVjn4avpYLPz8FFJ1XbHxo4EQQQix5xFEHPeCdV4YAnceQoyER+3jGpVXZ5Uhe3E4azDGTzBr+MQANtYWEDb8rzrsNELy7+D8Ln/4+/tj5/HHcPH1wwJHQ41tAQFMTLo07z2SBONkiD4chvWUP5oQvY5PwsqQf3gmjNXqXomQvYeRNXg8mruygbVFY0/q2ipHKPbEkYjj8LLOQ1jgThyKkYCvfQxVIdEW7fuEwAQmXVo+ItQQtyr93BatxqMuH9T6CBCYmKDlEMrPHcBPebYY6tC4WdAIb7rOhPjBeZwIlgLCLuhiLISJvQtcbPQAGEPcvzcEFVKUK01sAJUh2Hs4C4PHT0Czu63R5G61+akETfLKz+HAT3mwHerQtJff6E1XzBQ/wPkTwZBCAENDPQhMh8F5zMswG+gMlyHdIOpiDCMdPdi8MQw95YUAtvJCgFHyQgBrq17QqZBA0jBWRfspotGeympFN0EbuZrkiCzFsMr5CtPHLsTnp1Kh67oRHw1UFlkNGHaBkZrDbRANxBLPSag+HYCgfB7g7uBk7CuYO7ELgGqEnQ5B/p3z2OXvD3//nTj+2AW+fgvgaAgIu3SBsdAE9i4ukIeMGP17C1AhLW+op4p5pIg6+SJYiq2Q89V0jF34OU6l6sJ140dQNXSt8goAtJ4f1Omqqe4psYWmWFeX+0qpwK/7juHRm2/B0ajhI2FXdO2ixVSuEJvq5hSl8a1uLmzZUQsEhobQE5himPMYvGw2EM4uQ2AQobpfbf2sOCbR6+/gnQEigC9DyLpF+L/7E/DFoU9gr68hhpSNt1v7bdsS9XnTgfkKAIQW+JvzG+gmBIwHLcauj0dDJzkCVx/oqJWnqr6o9b0yNMWztnNBO9Y82uVIOc4d+Al5tkPRXGrfhOtMMR6cP4FgqXb1pr1oESGGMDIQgKqrUKVEf/5RJWBs0jR4+aK7GR2hEDog8PLKC9HjROxZ5onAgqFY7DkRFgJVszjAPypF2WN92M1ciw0bNjT9rV89HQNEbfuCjgA6rZb7OhAIAFLdBUT9Xkd/Y6C+tlbeUkGkWh30+mDJ0UvY52qC8B1z8caAkVh1OhccAIHoMRL3LINnYAGGLvbERAuB8gsRAACHvPT/QQohREo9w+NRaRke69th5tpmHTZsWI/V021RqLatHJ2mfVYAV1aCBzVSlDeuKhRQqTuXh/T/SQGhSGUAqWyrCoEIjxP3YJlnIAqGLobnRAuoCQmlaN0nGi8OW3yi+P+WcStQ7ec2aDUe1fmgyUfQ0UGzyhyKc++jmq9DXYtn7CJrK1gK6iCVPASPlucDgA6EQh2AeJW24vLSIXe3cm+rzQ0lBUqTPK44F/eredS1HgSsLAWok0rwkEfbBEXLPYRNH0Cgg9aVQLEQtLKfIu2xp3JVtPUL+izB0Uv74GoSjh1z38CAkatwOldpZDWgTm9lCGAx1xOzTUIRcDAFVXE/4e4gdzjoAeAfobTsMfTtZmJtC/9tWL8a0+UFtvUQdYSQh0yjHdvmUSvUytdDnyVHcWmfK0zCd2DuGwMwctVpqBy6Vnklp41u6uYHdbraFmqse4q20BTr6nJfKVwB7mZXQqSnqzTs2kWr2FQ3pwyQ3yRQ6EjbfG+ktRgN/WrrZ6V5zCM/yAvLD9Zi7vcBWNKvYXWiSXYbOR1EQ95oP18pIsDLfW1gpsNBVq9enkBpfalX7wOF3tCOeNY+NjSteaBdjnDFyL1fDb6ursU2MxGsrSwhqJNCXmq1qDftRKXqbdGDTd/e0Mm/gwz5lpwWcMhOuo9uA/q0uPuphsoLWDPDB2VzvsM2N0f0aDSwCtsITHvBwigdQQevQNL0KYes4F+R9AR7W4haXBHUV6OG7wG7Qb2UjkGtDrV5SLnfGx57riA99Rx8huRir9cOXK6txIU1M+BTNgffbXODo6aBQgfdXuoGUU0KbiQqfBk38eAhgGkvCxilB+HglWYtwGUh+NdkmKpt2xbhK31gaViM4J9/Q3njh3wZggOOI4NTo7tON7zUTYSalBto2xUPQE1bFVReWIMZPmWY8902uDn2aEpi1S0U0b5PreFU+VnxRC3HoyYf1PuoWYQcIXr17wdTLhXxN5r32vF1tagTvIqhDhbaJHwTOt1eQjdRDVJuJKL1UAk8ryE3lOSnJnnCXv3Rz5RDavyN5j2RfB1q6wR4dagDLDoyiA7RWfbULIfyUnC/twf2XElH6jkfDMndC68dlxXsowahCMKmGxXNELUIki5vwdNDjNRDX8HvZAXGzesrr3UCU/SyMEJ60EG0LivB+FWZA7VFrfxa5KXcR2+PPbiSnopzPkOQu9cLO5QllbZ51RHU6ZpsqqHutUVTrKvLfaXomMG8K3A/Pgb32uR/A+2JhSbUzSlJSl9C1jbflaO+X2kn+FmWEYBlK/8L03/+gK9nW0AAHpKSsk6RDWhrZ0U6Z76qLn2Ax33s8cYr1WrlcUrry+/QV+MDZa7UFM/ax4amNY+WOSLshf79TMGlxqO51PKoq62D4NWhcLAgrepNe2nfPAAA0IPTkhUYJbiMPZ9fQXFTrNShINQfn14ZBI+3jBs+48FxMhDfIsiI5IbhefAVd5FVXIncjHuorMlD+LloFHLVqChMRGxKm1U6YDwZi9xskB3givHufvgh6BSO+C/Fuihj9BUBHM8rLBYJALW48ST/N8+3DHAepTnZkPfGo+DsWSQN8sQHExueBxAgq2/heXU66OQh6IsA3KwGDKzfhs+mObA20ocBVeBuVjEqczNwr7IGeeHnEF3IobqiEImxKc2ymxDg5WnzMfWlLBxc44PzuXVAbQ5uppSAk+Qjp6gCOpMXwc0mGwGu4+Hu9wOCTh2B/9J1iDK2hYWGttUAeI4HNdqq6xQsmtsbRUdX4B+r/42g/xzHrg89ECQaCVsdNbpfL8a0+VPxUtZBrPE5D3lXN5FSwkGSn4MiSZHqtkrHzaPibhaKK3ORca8SNXnhOBddCK66AoWJsVAWEgDAcVxDTAHg1eirtE/I45SnFpOg+rgFp8LPOgIYGOgDDwtRUF6K2MhEFGkYT0vd1eZD3hjVPhIC4Dnw1DApA+g6dSU8B0twancgMurkYyq6FIa8USvxwRh9gOfAyQh8izvQ8iE22FEJgpenYf7Ul5B1cA18zueiDrXIuZmCEk6C/JwiVOioyQ0ldyE0ytOdipWegyE5tRuB8kGAL7qEsLxRWPnBGOgDjQnauthzPPjGBUoDBIBa3IEmeSFofoqgYD+BgQH08RCFBeUojY1EzkQN9oSSWoG2cjX5hcsLwhcBN1ENA1i/7YNNc6xhpG/Q7ptjwh6W6KmXj5iLN1Fcchu/7j2Ma2UylObdw4NHjfdmRHBYshxjyk7gFE3D1O6NrY0xeZEbbLID4DreHX4/BOHUEX8sXRcF474i8BwHGfEt7kATCCSv5YCSPFLITbXydZAX9AUC5EmFt302YY61EfQNlI28g3VCq/lBja62FurrXkV1G1toinVJkZrcVzYgQQ/8/R/jYRj7L7h/sBe/xd3A74cP4ffC5rlNYywoxKaxyjmlr3yRqRjf6uZCJfneCEGG1mJU9WuNKg1+bh1fbfMN1fH41+INuNZvPQ7tcIY5AECC4DOXUKhBdpvxqkCTndXmTYfmKwBUjQppw6KvJhkHj93F3zetwgiRenmq6ksXlT5o8L0CmuJZ27mgPWueSnXzY0q1wtybg4krPTFYcgq7AzPk39bBF+FSWB5GrfwAY/Q5LeqNFihumlYPRw+ufUfLJw0lO/tR5PzWZHIeN4Ymzf+cLuY279aWJp0iH+ceJNQV07xdFyg14yoFrhxJZgIjclh6gCLz8uj0yuHU08Sc+o1dSntDfyQPKzPqO/ULilb16xFVaXTMayLZmuuTnmkfGrX8MKVUEVWmnaUtUyxJKOpLs3eeo+ScRPrPtunURyiivrP86b+37lF80GZ621JIIptZ5B+cSbX1CbRpqB5ZOM2lpR+uoY8/fJ9muX5G53JkRFwZ3Ty5gSZZCElo6UIbT8bTg8Z3DVToQLXXyGdkP7Kf5EGf+vrR+uXLyf+K/KWo/NMraXhPEzLvN5aW7g2lHz2syKzvVPpC5UA5ksR9Tx5OVmRuZk3Dpn1EvkucyGaEG312KJoKOaKqtGPkNdGWzPX1yLTPKFp+OKXhxRb1be+mnKMtU3qRUGRNM3f8Shk18jEd95pI4pdNqKvlMHLbdZVKOLkstbpzEor73oOcrMzJzHoYTfvIl5Y42dAIt8/oUHS++rZK4PJP08rhPcnEvB+NXbqXQn/0ICuzvjT1i2ilPyjyOP08bXbpSUKhFc3ccYZSHmrQtw2VlHZuC03pJSSR9Uza8WuG5ri9d1WFn4lkmYfoPbE5dRfPpF0xj9SOp0hRd2m++nxQ5aPKNDq3ZQr1EorIeuYO+jVD/rZFffZZ2jjdkRzGz6Nl/1xM8z2/ovBijoiklHTKh5x7CElXPI92XUiljKuBtHKkGQmMHGjpgUjKV/5eDXGSOPrew4mszM3Ietg0+sh3CTnZjCC3zw5RtDwoleeGCjTKq8+msxunk6PDeJq37J+0eL4nfRVeTBxxVHbzJG2YZEFCoSW5bDxJ8Q84oso0OrtlClkKRdR39k46l5xDif/ZRtP7CEnUdxb5//cW3YsPos1vW5JQZEOz/IMps1yJ/WSZdOg9MZl3F9PMXTH0SJ09VdUKrf1CVHvNh0b2s6dJHp+Sr996Wr7cn64UqXAGEVHVCZrdpUvTy4ZEDyly+2TqY2pKlg5z6IvQC7TWsT+NW+hLx64/aNFQQv9ZMpX8bim+XVNFace8aKKtOenrmVKfUcvpcEoVkTSJTvk4Uw+hLonn7aILqRl0NXAljTQTkJHDUjoQ+b82edQ2N9XIp1q65jOS+tlPIo9Pfclv/XJa7n+FVA1dXV4pzfKOzA8qdSUNde9uG1vIm6iJ9fwOzIWyArq4ZRrZvdyFTK0n0JqgYNoyzLDpZUO1sRARpTQ2lc4pquJb3qDd+c6V3aSTGyaRhVBIli4b6WT8A/mL06r61eDnNvWzUDHfKihqwxAyEJiRo9sntG7dOlq37lNavXAsvfbeSXqkSva/Qihc1XiVosbOoREa8iZPy/mKiKr+R2e3v0/j/jaWZnh8SCuXfUDbzt1teCFb/fynrr6o8oEq1MZzB+YCTeuWwnr186Pi3EtUT9lnN9J0RwcaP28Z/XPxfPL8KpzkpVa7etNedKjl7ZoXBVkiNg8bgTPTonBjm4PSKy8Gg8F4Zqk+iXd7esHwyH0cnfUX/hUKhma4NGx3GoafJ4cj4fO/sfmMwfiD0WJrx18RFc+yGQwG41mGr4dMMACDXtdVPMJgMBiMP5AXcyEtK0f5Qw4VZZI2v3jDYDAYzySyVHw5/lUMct+D8/+NRd3cT7DQVtmr0YwXCtkDPKiQoVL6UOkLYgwG4+ki9PX19VX88C9NbSYuHbmIklffwOtdypFLvTCkr7nSb+pgMBiMZwZBN/Tu0wWyh2Wo7uWKzWsn4hVWuF5suHxcOx6C+z3sMdBEgjydV+Fo3fh9vAwG44/gxdwjzWAwGAwGg8FgPCEv5tYOBoPBYDAYDAbjCWELaQaDwWAwGAwGowM80UKaf5SF5EzpU/vui6ct/2nCV2QjPjIaKUU1QE0+km8Xt3McVchJuIW8Fj8l3KlopQvj+eEpx80zQk1+Mm4XP5vR++fo9mL4ncFgMJ5VOraQ5vLw+y4PDLd5Ha770zv/TeGnLf+pwuFe0Kfw3HkO0f9dh4k2PdGzV1+M3x7Zrm8I4bP3Y8GIkVh2pEjx0JPBS5Fw7GM429q2WxfG88NTi5tnBF6agGMfO8PWdjy2Rz5b0ftn6tbS73/0Ep7BYDAYHV1IC3tjotcyjOtOSn/u/Il52vKfInzxCXivScXfPvGC1xencXL9RNi+0v5xCKyX48foKBxY2FPx0JMhMIOD2xrMELdfl2cFvvQG4u+2/Hn3FwS+FDfi7zb/nLUanlrcPCMIzBzgtmYGxM/gu9F/qG4KMdHS7x0r5i86PEpvxONFLC8MBqNz6HjtFZrBzPQJf59cHU9b/lOiLuYyIquMYWoAQNAdzlsOYYlW3/VqDCuHoej9NH6sTGAKE+PnzaZViP1mMw7feb6eS3QGVbHfYPPhO+18IvMU4+YZQWBqgmc1fP8o3drGxF/f70+Vqlh8s/kwXsDywmAwOgmtF9Ky8kzEhUcgIe+x4iEAACfJQvzVCMSkl7TZPlCVm4yMMh6oK0ZqVBTSStpWL03yqwuScS0sAjdyHql9lMlL7yI2/CoScytQVlCIqpYHqwuQfC0METdy8EidkOpcJKeXgqspwK24dJQ33bWoRkHyNYRF3EBOk4Ba5Mb9hosxd1HBPUDa5WD8FpWJRxBAR+kEq0yGnNqCJKQVtf5M1bjbY9NmlOsiK7uD2NArCLueBWmrOzM8pHdjEX41EbkVZSgobGVF+RnltxEREozg4GAEh0Qio4IH8AiZ135DcHAIIjOkTedqPQa+FDF7FuL9XXHITryIkNAUlPIAIEPZnViEXgnD9Sypwh1bTTrzKEsNQ0iwXOffYrNRDQDV2Yj9LRjBIWFILVMWFNXIS7qNYh7gpFmIj0pAbqPoumKkRUXiVoGSjaqcBFnxVxERk46StgmB5Iwy8KhDcWoUotJKGhZIPEpj9mDh+7sQl52IiyGhSJEPXI2vtIsb8FLcjQ3H1cRcVJQVoI2ZVMA/uofUrEfgOQkyYyIQm6lofzW+UZFP6sbUCoEOlISvehsro64E6dFhCIvNhIQDwBci8VIIgoNDcDVdCh4cCm78Jo+PmHvy+GhApa6qdGvBk9Uk1TFRk9/W7yrlqYy5FqhqqwxV57anH0UU/QIehYmXEBIcjJCr6ZDyAFdwA78FByP4txjca+kYVXqgCrnJGZCXl1RERaWhubzEYM/C97ErLhuJF0MQmlIqzxFZGe7EhuJK2HVkKQTko6wbSCnSOBIGg/ECocVCuhrJ++fDZelBJOZn4pyPFwLutCwyUsR87QHX9UFIzs3AWe8xGOjih9BSHnxpHI6sngBb8RT4nzyI5S7vwG3+O7AfPBMBmY0yNMjnCxGybRm8A8KRdP1neI8WY+zGy1C25qlL2gMPrxPIk9UgLdAdTu/+gGwZ5IU5ZBuWeQcgPOk6fvYeDfHYjbisKIQvQUzgKkywFWOy7z7sfHc0Ro4YjkVHy8AXhmDbMm8EhCfh+s/eGC0ei42Xy8CDUFdVAWlVPUD1qKqQQvqwBpwS/VTKkN7Cz+v+jv79RmLT7w2LMhXjLi1uj001wSHr2EI4zf4Gtx4UIcrfBeLRWxFdDQB1SNrjAa8TeZDVpCHQ3Qnv/pDdZjIUGHeHfvq/sWTaDOy4aYZexgIARnilSxx274qHqJtRh8fASwtQZmiOLjyP2ioppBXVkHFZOLbQCbO/uYUHRVHwdxFj9NbohsVOe3QWwLBLFS5tmoupbnuR3eNlGACAQXcIr22Hz/kqmHVpmRY8yuOPwXuSGP3H+SLo1Ba4z/PA4tkjYOfkjZD4o/hg6iwsWjEHTnZjsEVuPACANOZreLiuR1ByLjLOemPMQBf4hZaC50sRd2Q1JtiKMcX/JA4ud8E7bvPxjv1gzAzIBMdLUVBmCPMuPPjaKkilFaiWqfGVFnFTxgOoS8IeDy+cyJOhJi0Q7k7v4gd5gqiGy0PEt0sx3Gog3L49jq1vvYE3J0/CCDsxJvpdQwUAqPKNynwqUT2mdqLSxoonAvLFaNgOLPD4P1zOKUHSt9MhHuaFM8Vm6PNqMX5cPgPLDqZBBiG69e6BjD3umP5xEAo4aMgVzTx5TWobE5UPEnDy07dg228stkY0XsSpkFdarD7m1LVV1EXdue3qRxEVfikEuvV5FcU/LseMZQeRJgOE3XqjR8YeuE//GEEFnGo9ymQojTuC1RNsIZ7ij5MHl8PlHTfMf8ceg2cGIJPjIS0og6F5F/B8LaqkUlRUy8BlHcNCp9n45tYDFEX5w0U8GlsbnVwXjs/ecsLw+QGKA2AwGC8y1E6qItfSkL6L6Iyk4YPK87TEUpdeWxtNtUQkubCCxHarKfxxUwPyttMji3k/URFHJLv7JY3SM6Vhq85QVi0RSX8h9x76NPrLuyTTKJ+j4pPuNGF9DNUSERFHObvHkZ6uA21OqG9o0EgtRX0yiOzXxdBjIiKuiI5v/5ZS64m44pPkPmE9xciFEJezm8bp6ZLD5gRSlEJcDu0er0eGg1fRxRIJpV4OoVulhXTSfQKtbxZAu8fpka7DZmpUo+rHGWRg5kpBVY2CHtKhaQZk7vZLgz7F6mU8CKC/6xvTP45XEWkYtyabtkVBF9lt+vxNI3Lcmkz1RFQft4EGGdjLbVobRZ8Msqd1MXKHckXHafu3qW3tRERUn0zb/mZIlovOkJSIiDgqOPQhrQ1+9MRj4Aq+I2cDS1p6oYaIiGS3P6c3jRxpa3I9EdVT3IZBZGDfYDstdK4KX01ifTtaGyWXS1wRHZk/j/blcoqnysfznTPpGznRhvBCkhFR7c1NZK/blUasu0j364moPoE22etTX69QqiEiklygFWI7Wt2cEBTpbUd6FvPoJ3lC0Jej9Mh02Co6Ix84/eLeg/RHf0l35QOn75wNyHLpBbk8db4i7eKmNuoTGmS/juRm4qjo+Hb6NlWZlRSojaJPBuiSxcQtFHK/nqgqjQ7MsiShniP53qpX7xtl+VSSqn5Mijw8RNMMzMntlwabarKxAlzhCXK1daHvc+TH6lO+pHHdetHC05VEsjTaPtyABnxyrcFmtXTtkwFkOOJf9D9ZO+yvqFsrOqsmKcQEEXGF35OzvinN/VlecNTK0xBzats29NeI2nM19KOIWr+QjNK2DyeDAZ/QtYa+aq99QgMMR9C//idTrwfJ6O6Xo0jPdBitOpNF8vLiTj30R9OX8iSjgu+cycByKcnLi4xuf/4mGTluJXkIx9GGQQZk3zT+Skr+f7tp3+/5jaozGAwGtfOOdCVC9h5G1uDxmND466MGNrC2aNz7W45zB35Cnu1QODTu1TN6E64zxXhw/gSCpYCwSxcYC01g7+ICGz0AxmL07y1AhbQcpFF+NcJOhyD/znns8veHv/9OHH/sAl+/BXA0bDilCREsxVbI+Wo6xi78HKdSdeG68SMMFAHVYacRkn8H53f5w9/fHzuPP4aLrx8WtBUCCAxhqCeA6TBnjHnZDAOdXTDEIAKnQ/Jx5/wu+Pv7w3/ncTx28YXfAkcokaCc6jD1Mgy7wEjUdLLacau3aTsQiuF5JALHvayRFxaInYdiIOFr8biGB0SWEFvl4KvpY7Hw81NI1XXFxo8Gokm1logGYonnJFSfDkBQPg9wd3Ay9hXMndil08cgFHviSMRxeFnnISxwJw7FSMDXPkYND610NhrlhY9G5+PIV6fk2zVygvCr7izM6a0sJQToYmwEHT0bvDGsJ4QA9MS2sBIBvd8YBUsRAJE1rHrpoEIiAQEoP3cAP+XZYmhzQuBN15kQPziPE/KEQBdjIUzsXeAiHzjE/XtDUCFFufKBq/YVtIsbkaUYVjlfYfrYhfj8VCp0XTfio4HKrKSAwBCGBkK8PHIGnC1FgJEdPLYugz0lIzy8GDrqfKMsn15+Tf2YNKDRxgpIgk8iRN8Bw3rKfSx6/ROEleXj8ExjxVPbosn+aumkmqQEgYkJurTYU6JWnoaYU9tWAbXnauhHkSfxi1o9IESXLsYQmtjDxcUG8vLSH70FFZAqUwRCiD2PIOK4F6zzwhC48xBiJDxqH9c0POEwxqB3V2PFhF6KDRkMxguMslVDW7g8pP9PCghFyhtwxci9Xw2+rg7Nu0RFsLayhKBOCslDHtBR2EOoI4RQByCeNMvnH6G07DH07WZi7YYN2ND4t341pg9QXAAI0GfJUVza5wqT8B2Y+8YAjFx1Grkcj0elZXisb4eZa1vI2LAeq6cPULrYUtz0yD8qRdljfdjNXNui/QasXz0dbdRQgWYZOs37mDWNW51N24UAoseJ2LPME4EFQ7HYcyIsBA1tBX2w5Ogl7HM1QfiOuXhjwEisOp2r4tGsABZzPTHbJBQBB1NQFfcT7g5yh4PeUxiDQITHiXuwzDMQBUMXw3OiBRpV1kpnYV8sWDMHBr9+hX3JNUg9FopX5k1FN8XzGtBR3FyuI4BOq6W+DgQCQP7FDRyKc++jmq9DXYtt0yJrK1gK6iCVPATf0s8AAB0I5QNXegGh1leAVnEj6LMERy/tg6tJOHbMfQMDRq7C6VylVtKIqN/r6G8M1NfWgtT5Bm3zSfOY1NEeG7eEQ1nJA9RIyyFpbxeteBJdO7EmKaLTMo40yVMXc5ratkTTuer6UeRJ/KJJj7Z5qyMUQgcE1eXlMRL3LINnYAGGLvbERAuBEp0ZDAajGaXr1jbodMNL3USoSbmBxNrWh4jnAWEv9O9nCi41Hjea9gzyqKutg+DVoXCw0NCNJvkCU/SyMEJ60EFckTQf47KC8WuS4t5ODnkp99HbYw+upKfinM8Q5O71wo7L9TDtZQGj9CAcbC0Ewb8mtdn7qwyBaS9YGKUj6OAVNEvgkBX8K9qooQKtZGg17g5QeQFrZvigbM532ObmiB6NsyXJL55S7veGx54rSE89B58hudjrtQOXFfzTRJe34OkhRuqhr+B3sgLj5vWFEJ0/hsoLazDDpwxzvtsGN8ceTRO8fP2qnc5dXVZjxZDbOPAvP3x/83W8P8FI8ZQOIkSv/v1gyqUivjkhwNfVok7wKoY6WLQz8VqgzleKaLA5l5eC+709sOdKOlLP+WBI7l547bgMFWZqA1GLJWp9NWr4HrAb1AuP1flGGdqMqQ3a2liIV/pYwrA4GD//Vt58flkwAo5ngIMQIqGSCzgi+YXYE+n69GpSawRPIE+bttqcqwlNfgGEcscomJpAXGfqAQCVuLBmBnzK5uC7bW5w1M7JDAbjBaV987ngZUybPxUvZR3EGp/zyK0DanNuIqWEgyQ/B0UVupi60hODJaewOzBD/m0dfBEuheVh1MoPMEYf4DkOMuJbTFQEAoHnefAa5etg8iI32GQHwHW8O/x+CMKpI/5Yui4Kxn0V79twyAv6AgE3qwEDa7ztswlzrI2gb6AD48mL4GaTjQDX8XD3+wFBp47Af+k6RBn3VX73hwBZfYtybDwZi9xskB3givHufvgh6BSO+C/FuihjNKpRV1cPqqtDbdNagwPHyS8I+HbKaMZY7bjV2lRBkpzWuvAVd5FVXIncjHuorMlD+LloFHLVqChMRGxSBoK+CIDcjG/DZ9McWBvpw6DNXcVGRHBYshxjyk7gFE3D1O6Nnz/ZGAQGBtDHQxQWlKM0NgLRt7NQXJmLjHuVqMkLx7noQnDVFShMjEVKRZ52OosGYtnqqaj/f18jdcT7cGxj/2Y4ngeopV1JrmvTHCv/N8/L7+x2nboSnoMlOLU7EBnyhEDRpTDkjVqJD+QJAU5G4FssEIgafCMfOAz0gYeFBSgvjUVE9G3VvkqpbFSiAfU25/KC8EXATVTDANZv+2DTHGsY6RtAp/o6vl04Fe/5/YZC5QEEgEdpTjbkPfIoOHsWSYM88cFEPVTcVeObyrb5pDb+2owJAMeBa4gNtMfGCnSdsghzexfh6Ip/YPW/g/Cf47vwoUcQRCNtIRT2gGVPPeTHXMTN4hLc/nUvDl8rg6w0D/cePEK1Jl0VdGtNJ9UkhZiITKoGeA48kTxmAPXyNMSc2rYt9XjCfhRR6xcI0cOyJ/TyY3DxZjFKbv+KvYevoUxWirx7D8CPUaMHeHCcDMS3uAMtV6TBTwIYyA2KgvJSxEZE43ZWMSpzM3CvsgZ54ecQXcihuqIQibEpAJeLU5+8C49v4xVGwGAwXmgUN02rhJNQ3Pce5GRlTmbWw2jaR760xMmGRrh9RoeiC4monrLPbqTpjg40ft4y+ufi+eT5VTgVc0QkTaJTPs7UQ6hL4nm76EJqBl0NXEkjzQRk5LCUDkTmt0N+FaUd86KJtuakr2dKfUYtp8MpTW/0taCWrvmMpH72k8jjU1/yW7+clvtfocZ3j6rSjpHXRFsy19cj0z6jaPnhFGojhSujmyc30CQLIQktXWjjyXh60PjuUlUaHfOaSLbm+qRn2odGLT9McjXqKevKv2nl6O4kEPSgCWsD6P9FZ1Lq+c3k0lNIQquZtONMigYZRFR1gmZ36dLw0hipHnd7bNqKx5SuqAuXT6dXDqeeJubUb+xS2hv6I3lYmVHfqV9QdMk18hnZj+wnedCnvn60fvly8r9SRG1f4WqJhP6zZCr53VJ8NekJxiDLpEPvicm8u5hm7oqhivzTtHJ4TzIx70djl+6l0B89yMqsL039IpqktR3QuSacVjtOo/35qs+qTDtLW6ZYklDUl2bvPEfJOYn0n23TqY9QRH1n+dN/b92j+KDN9LalkEQ2s8g/OJNqiag++yxtnO5IDuPn0bJ/Lqb5nl9RuDwhKOmUDzn3EJKueB7tupBKGVcDaeVIMxIYOdDSA5GUz8ko89B7JDbvTuKZuyimQo2vpFrEDRHVXvOhkf3saZLHp+Trt56WL/enK0UccfmHaFZPM3qpxyjyS1b0YcMLlUP1yMJpLi39cA19/OH7NMv1MzqXI3+DjFPlm3+FULiyfFIXf/K3Vpt5nE7nN7tQT6GQrGbuoDMpD+UqqbSxcqrSjpPXRDG9bNKVLIe50a6rJU3x8TByO03uY0qmlg4054tQurDWkfqPW0i+x67Tg3o1uhYp162ZTqhJRESkEBNFaXRuyxTqJRSR9cwd9GuG/BVE5fLaE3Oq2ipH+bnt60cRdX6hh5G0fXIfMjW1JIc5X1DohbXk2H8cLfQ9RtcfcCr0IJImnSIf5x4k1BXTvF0XKDXjKgWuHElmAiNyWHqAIvM5kmUeovfE5tRdPJN2xVRQ/umVNLynCZn3G0tL94bSjx5WZNZ3Kn0RLSWqv05bh3cnK49fWivPYDBeaHSI/oif42K0m+qTeLenFwyP3MfRWexXFp42fO4+eOx4Gd8EzIa54sHniU6LmzpE+nyAG0sDsKqvwg8JyRKxedgInJkWhRvbHNrcpWQwGAwG40WjfVs7GH8cfD1kggEY9Lqu4hFGp8GhslyCGr4SUXsvweL9d57vRTQ6K254lEXtx/nu72OB4iK6FUqezzMYDAaD8QLCFtLPArJUfDn+VQxy34Pz/41F3dxPsFCrnxVnaIMsaQfGW/RAj56vYWX5AqwZ9SR3cP9EOjlueEkyEvmp8PUer/zCQlaO8occKsokbX61lMFgMBiMFxG2teOZQIbc33/AkbASmA5+B27/cMTLHV8PMTQhy8Fv+44j5aW3sGDuMLz83F5O/oFxU5uJS4f/HyKyKyATmcF6/Fwscu4LPcXzGAwGg8F4gWALaQaDwWAwGAwGowM8t/fiGAwGg8FgMBiMPxO2kGYwGAwGg8FgMDoAW0gzGAwGg8FgMBgdgC2kGQwGg8FgMBiMDsAW0gwGg8FgMBgMRgdgC2kGg8FgMBgMBqMDsIU0g8FgMBgMBoPRAdhCmsFgMBgMBoPB6ABsIc1gMBgMBoPBYHQAtpBmMBgMBoPBYDA6AFtIMxgMBoPBYDAYHYAtpBkMBoPBYDAYjA7AFtIMBoPBYDAYDEYHYAtpBoPBYDAYDAajA7CFNIPBYDAYDAaD0QHYQprBYDAYDAaDwegAbCHNYDAYDAaDwWB0ALaQZjAYDAaDwWAwOgBbSDMYDAaDwWAwGB2ALaQZDAaDwWAwGIwOwBbSDAaDwWAwGAxGB2AL6U6Af5SF5EwpeMUDzwL8I2QlZ0LaLuVqkJ98G8XtOrc98HiUlYzM9nWugc6UpQ1VyEm4hbwaxc+fnKqcBNx6IsF/pr84SO4k416V4ueMdlGTj+Tbxc9mzXiaaFWP/spok2sMBuNZ5sVbSHPlSDmzG2uXL8HSFR9h9ccb8MXJGNy7dQRHQmsVz1YPl4ffd3lguM3rcN2fDpni8T8VDnm/74LHcBu87rof6WqV4yFNOIaPnW1hO347IusUj2sPl/c7dnkMh83rrtivvnONdKYsbeGz92PBiJFYdqSocxc9fDb2LxiBkcuOoEhrwX+uv7ic37FrwRuwGbIEx3M4xcMMdfBSJBz7GM62thi/PRKd4LrnBG3q0V8bbXKNwWA8+7xQC2m+6BI+mzQM7/0swrRN/8YPAd/h668+wz+6/IolLv/EiYwKxSbqEfbGRK9lGNedQIrH/nSE6D3RC8vGdQdpVE4AMwc3rJkhbse57UPYeyK8lo1D904Q2JmytEVgvRw/RkfhwMKeTcnCl95A/N0nXEAKrLH8x2hEHViInlpn4Z/rL6HVRHy0aAzMn8Gobzd8KW7E38UTelF7BGZwcFuDGeJnsWY8TbSpR88HHa0D2uQag8F49tF6Cn9ukaVhj7srvqldhhOHvTC2t37DAWPYTtuKnwPeh9lDiUKjdiA0g5mpjuKnzwhCmJmZon3aCWBqYtzOc9uH0MwMnWWazpSlHcawchiK3gaN/69C7DebcfjOk99JMrZywNBmwVry5/pLaGwC4+e4elTFfoPNh+/8OU+RBKYwMW6nof9SaFOPnnWerA5ok2sMBuPZ5tmaCmuyEXb4S/j67kTg71moVjz+BEjOfI6d4TycVyzFYD3FowK8/M7HWDSk+RNZ2R3Ehl5B2PUsSJXcdJCVZyIuPAIJeY8VD2ls25LqvCTcLuYBToqs+Cgk5DZuOq1DcVoUIm8VoM0uWk6CrPiriIhJR4myZ8OycmTGhSMiIQ9ttQNQXYDka2GIuJGDRy22FQh0lFV2DpKseFyNiEG60s4UkaE8Mw7hEQlQYhoA1ShIvoawiBvIadm5UjTJUqdbNXKT01HK1aDgVhzSy+WO6Ii9a/KTkFbEA3wpYvYsxPu74pCdeBEhoSkobRyCWp8o1wU1+UhKU9gyolZOa/5Uf+noNCyICLLS24iJSUWRouEAVBck41pYBG7kPFK7NaYjflFrq6pcJGeUgUcdilOjEJVW0rBo5lEaswcL39+FuOxEXAwJRUqDE1XnrQr/aUJWhjuxobgSdh1ZrQQKoNR1rahGXpJ8/zsnzUJ8VAKaTVKMtKhI3CpoYxHV9lZpjxaosycvxd3YcFxNzEVFWQEKtdkbr6kedUq/HbMXJ8lC/NUIxKSXtNlmU5WbjIwyHqgrRmpUFNJKGiympg6ojiG0I9fU5a7qGFTlc156F7HhV5GYW4GygkKoNB2DwXginp2FdFUcPndxhPPiT7F163osmTwMk/2iUKl4XoeoRsTZiygRiDHsb90UD8oRvYa//30AAA5ZxxbCafY3uPWgCFH+LhCP3oroplV9NZL3z4fL0oNIzM/EOR8vBNxpLGqa2jbDl8fjmPckiPuPg2/QKWxxnwePxbMxws4J3iHxOPrBVMxatAJznOwwZkt000WFNOZreLiuR1ByLjLOemPMQBf4hZY2FdDq5P2Y77IUBxPzkXnOB14Bd1o8vuZRGLINy7wDEJ50HT97j4Z47EZcLlOxxJHG4GsPV6wPSkZuxll4jxkIF7/Q5sWjItXJ2D/fBUsPJiI/8xx8vALQZBoAfGEIti3zRkB4Eq7/7I3R4rHYeLlM+QJLgyzVuvEoiQnEqgm2EE/2xb6d72L0yBH4m7sf9mppb16SgJOfvgXbfmOxNaIGvLQAZYbm6MLzqK2SQlpRDZlanyjXZbjHPoSe/BRv2fbD2K0RTQtE1XLaiUqbKJ7YgAYba/YXofhXL4x0GAnn0YNhbTcD38Q3ZCxfiJBty+AdEI6k6z/De7QYYzdehmKodXoe8KWIO7IaE2zFmOJ/EgeXu+Adt/l4x34wZgZkguOlKCgzhHkXHnxtFaTSClTLVOWtCv8tOoqy1sNoA5d1DAudZuObWw9QFOUPF/FobFVWCNrAozz+GLwnidF/nC+CTm2B+zwPLJ49AnZO3giJP4oPps7CohVz4GQ3BlsaZaqyt0yDPRp6VWlPAKhLwh4PL5zIk6EmLRDuTu/ih+w2y3ClqK9HndFvB+0FKWK+9oDr+iAk52bgrPcYDHTxQ2gpD740DkdWT4CteAr8Tx7Ecpd34Db/HdgPnomATE5FHVAVQw3dacg11bmrJgZV+ZwH6pL2wMPrBPJkNUgLdIfTuz+gjekYDEbnQM8EHBX9MJVMdEBA85+O8Vv07/uc4snaw+XS1xP0CPpv0b4SxYMKyG7T528akePWZKonovq4DTTIwJ42J9QTEVFV5Foa0ncRnZE0nF95npZY6tJra6OpVkNbRbiC78hZ34icNoRToYyIam/SJntd6jpiHV28X09E9ZSwyZ70+3pRaA0RSS7QCrEdrQ5/3CChiiK97UjPYh79VMQRVUXS2iF9aVGzcnR+iSXpvraWomuJuOKT5D5hPcXUNvSfs5vG6emSw+YEqieih4emkYG5G/3ymIhIQhdWiMludTg19RbpTXZ6FjTvpyJq65Uqilw7hPouOkPNpllClrqv0Vp553TSfQKtb+6cdo/TI12HzdTWPBpkadSNo5zd40nPcDCtulhCktTLFHKrjOq1tTcRcYXfk7O+Kc39uUr+/4LvyNnAkpZeaDhBk09U6MJxhfS9sz6Zzv2Zqtolpy1/pr/q4zbQID1Lmr4njspkRJXJB2iOtS7pD/OjpHqOik+604T1MSRvzVHO7nGkp+ugNBc6PQ9kd+nLUXpkOmwVncmqJSIp/eLeg/RHf0l3ZUTEFdB3zgZkufQC1ZCmnFfhv9ZDUEBGtz9/k4wct1KyXCBtGGRA9g15RvSQDk0zIHO3X5p81RqOCr5zJn0jJ9oQXkhyk2wie92uNGLdRZKbJIE22etTX69QqiEN9tZkDw32rI36hAbZr6OYx3LZRce307epbf3YBg31qPP61dZeRJILK0hst5qau44kbzs9spj3E8lD6EsapWdKw1adIbnJfiH3Hvo0+su7JA8hhTqgNoY05JrG3FUWg6VUqNLnVRT1ySCyXxcjl8cV0fHt35JS0zEYjCfmGbkjzaMwJw81Cu9eUG0esu93wmW0wAhG+gLoUD1qalTdnmtAKIbnkQgc97JGXlggdh6KgYSvxeMaHkAlQvYeRtbg8Zhg1nC+gQ2sLYTtaNsWQRdjGOnoweaNYegpBKAnhq2VCOj9BkZZigCIYG3VCzoVEkgIKD93AD/l2WKoQ+O+WiO86ToT4gfncSJYisqQvTicNRjjm5WDjbUFGrRDddhphOTfwfld/vD398fO44/h4uuHBY6GDWe0oPwcDvyUB9uhDmjq7U1XzBQ/wPkTwZAqnI7KEOw9nIXB4yeg2TTWaDQNqsNwOiQfd87vgr+/P/x3HsdjF1/4LXBEm941ydKomwCGhnoQmA6D85iXYTbQGS5DukGkpb0BQGBigi5qHsNr8glU6CIQmMCkhWDNcjSg0SYKaLJxe/wltMDfnN9ANyFgPGgxdn08GjrJEbj6oBJhp0OQf+c8dvn7w99/J44/doGv3wIoC7XOzgMIu6CLsRAm9i5wsdEDYAxx/94QVEhRruz9LrV5q8J/ijJaIYTY8wgijnvBOi8MgTsPIUbCo/ZxTTufLgjQxdgIOno2eGNYT8hNYgu5SUZBbhJrWPXSQYVEAkK1entrsIcme4osxbDK+QrTxy7E56dSoeu6ER8NFCno3BZN9ajz+tXWXuU4d+An5NkORXPXb8J1phgPzp+APIS6wFhoAnsXF8hNJkb/3gJUSMuVvySqLoY05ZrG3FUWgwaIUOlzESzFVsj5ajrGLvwcp1J14brxIyg1HYPBeGLUzwd/GCLYDndEj8bC0oDgJUe8OaDNhuYO0BVvOIoh4u4gJUVx75kiAogeJ2LPMk8EFgzFYs+JsBA0lE4uD+n/kwJCkQrDqWmrjKZ9pk0fQKAjvx3f9IlAAPlr7hyKc++jmq9DXYutfiJrK1gK6iCVSJCT/j9IIYRIqXI8HpWW4bG+HWau3YANGxr/1mP19AFQrLFccS7uV/Ooa90ZrCwFqJNK8FBhRcDlpUNuGqWdg39UirLH+rCbubZF3xuwfvV0DFDoXJOs9ummZPWrlb0bP9BRs59Vk08eNiyclAnQgU6T4PbKUU37bNKMJhtr4y85Arzc1wZmOhxktY9QWvYY+nYzsbZF2w3rV2O6ssZa+aU9tlL0mQ6EQh2AeOWLII15q8x/6hGIHiNxzzJ4BhZg6GJPTLQQqOhbOc2x0fiBAPIHdk0foMkkvCZ7q7OHZnuizxIcvbQPribh2DH3DQwYuQqnc9tsAFaAQ57aetS5/WplL64YuferwdfVtdh3L4K1lSUEdVJIHvJtY1JHCLnJVHlRdQxpyrX25a7C+NT6XA99lhzFpX2uMAnfgblvDMDIVaehwnQMBuMJUZ7ZfwJd3t6OfauGo7tIR17ozR3x4b5/YWbjJfwTIYK9x1KMMynGucBTKFS2Kqm7gwu/JgGVF7Bmhg/K5nyHbW6O6NE47xMAnW54qZsINSk3kKjwldPE8+rbPjFC9OrfD6ZcKuJvNO+15OtqUSd4FUMdeuGll7pBVJOCG22VAw8BTHtZwCg9CAevtPh2Ei4Lwb8mtXnxSNirP/qZckiNv9H80idfh9o6AV4d6gALhcjR6fYSuolqkHIjEa17J/A8IDDtBQujdAQdvILm3jlkBf+KJIXONcnSVrenhyafWLQzwZ5cjrY20WRjbfzVSHXpAzzuY483LMzQy8II6UEH0TrUgvGrqsbt5slt1YZOz9tKXFgzAz5lc/DdNjc4PrlA9QhMn8Demu1JeSm439sDe66kI/WcD4bk7oXXjssKcaOIDrqprUdPq992IOyF/v1MwaXGo7lrHnW1dRC8OhQOisnSHtTEkKZc0zZ3AU0+r0Veyn309tiDK+mpOOczBLl7vbDj8hNbjsFgKEFZiv45CCwwdVcU7mbEIDQ0GhlZsdgzw7LTFBTa/hMB385Fl/OrMXfDf3GnxVuMvCQeRz4/A3IYBL7iLrKKK5GbcQ+VNXkIPxeNQq4aFYWJiE0zxLT5U/FS1kGs8TmP3DqgNucmUko4SPJzUJB3W3XbFCWvTXI8+IZi2ggBoBZ3RIkI4HlwALpOXQnPwRKc2h2IjDoA4FF0KQx5o1bigzGGeHnafEx9KQsH1/jgvFw53EwpASfJR05RBXQmL4KbTTYCXMfD3e8HBJ06Av+l6xBl3BciABzHySc5HkDXqVjpORiSU7sRKO8MfNElhOWNwsoPxqDxywMbEbw8DfOnvoSsg2vgcz4XdahFzs0UlHAS5OcUoUJnMha52SA7wBXj3f3wQ9ApHPFfinVRxuircJNSoyzd9uhGgKy+9QWClvYGAPAceGpuIzAwgD4eorCgHKWxkciZqM4njVZSogt4cDzJL8A0+lbR2nL+dH9RNSqkDZNzTTIOHruLv29ahRF6xpi8yA022QFwHe8Ovx+CcOqIP5aui4KxorOhvV802ornwMkIfIs70ETyi12eByAwgIE+8LCwAOWlsYiI1pS3bf1Xff1bLJz6Hvx+K2zxaQN8Be5mFaMyNwP3KmuQF34O0YUcqisKkRibAoCD3HW8yicNHM83LDgbIQDU4mGJ/N88zwHQYG8N9tBkTy4vCF8E3EQ1DGD9tg82zbGGkb4BdKqv49uFU/Ge329Kbk4INNYj3Y72q9iV1vbqiqkrPTFYcgq7AzPk39bBF+FSWB5GrfwA8hDiICO+xR1oAoHAN/hMsQ4kFqmeN64XT1Sfax2qZ+p8roO8oC8QcLMaMLDG2z6bMMfaCPoGOuDLLmGr63vYHtqBr3plMBjKUdw0/ddGRsXX9tLK6X8jcf/B5DRhCs2at5CWfbqXrpU0vD7E5dPplcOpp4k59Ru7lPaG/kgeVmbUd+oXFC0lIk5Ccd97kJOVOZlZD6NpH/nSEicbGuH2GR26lqC+bUsq0+jslilkKRRR39k76VxyDiX+ZxtN7yMkUd9Z5P/fW3QvPog2v21JQpENzfIPpsxaovrss7RxuiM5jJ9Hy/65mOZ7fkXhxY2vPnEkifuePJysyNzMmoZN+4h8lziRzQg3+uxQNBVyRFVpx8hroi2Z6+uRaZ9RtPxwClUR0eP087TZpScJhVY0c8cZSnlIRPXZdHbjdHJ0GE/zlv2TFs/3pK/Ci1W+aMVJ4uh7DyeyMjcj62HT6CPfJeRkM4LcPjtE0fLO6ZjXRLI11yc90z40avlhSpG/w9cGjbJU6sZR2c2TtGGSBQmFluSy8STFP+A6Zu/yNDq3ZQr1EorIeuYO+jWjhkiWSYfeE5N5dzHN3BVDj0idT1ToQpWUdm4LTeklJJH1TNrxawaRWjlt+dP9VfU/Orv9fRr3t7E0w+NDWrnsA9p27m6Ll+eqKO2YF020NSd9PVPqM2o5HVbm7I74RW0eSCnplA859xCSrnge7bqQShlXA2nlSDMSGDnQ0gORlM/JKPPQeyQ2707imbsopkJVzv+LQsKV+Y+j/EOzqKfZS9RjlJ/iiOTHT6+k4T1NyLzfWFq6N5R+9LAis75T6YvoIko/v5lcegpJaDWTdpxJUWxMlWlnacsUSxKK+tLsnecoOSeR/rNtOvURiqjvLH/67617FB+0md62FJLIZhb5B2dSrUp7t8ce6uxJVHvNh0b2s6dJHp+Sr996Wr7cn64UccTlH6JZPc3opR6jyC9Z2ZtsmutRR/pVpGP2qqfssxtpuqMDjZ+3jP65eD55fhVO8hBKolM+ztRDqEviebvoQmoGXQ1cSSPNBGTksJQOROa3rQMa5g2NuaYyd1XVEFKTY7V0zWck9bOfRB6f+pLf+uW03P+K/CXKzO9pyis9aeq+LAUrMhiMjqJDLW/7MBgMBqN91EXC54Mb+PyHVYpHXiDqEOnzAW4sDcCqvgovuTAYDMYLQGftnGAwGIwXB74MUfvPo/v7CxSPvEDwKIvaj/Pd38cCtohmMBgvKOyONIPBYGgFD8mtUKR2HYXR1h39iffnH15yC6GpXTFqtHXT17YxGAzGiwZbSDMYDAaDwWAwGB2Abe1gMBgMBoPBYDA6AFtIMxgMBoPBYDAYHYAtpBkMBoPBYDAYjA7AFtLKqMlH8u1ilT+WoD1VyEm4hbwWvwDLaD/8oywkZ0o70R9/LM+7/s8ez3M+8XiUlYxMaTujodNrkSq01EstnSlLC6pykHArr8XPfncWz3O8MRiMp82LsZDmshFx9Ct8NGMsRo95G++t8ISnp/xv2cJ/4K0J72NvmgzgpUg49jGcbW0xfnuk/BevOgE+ez8WjBiJZUeK/oAJ8S8El4ffd3lguM3rcN2f3uZnzJ95nnf9n1Ge13zi8n7HLo/hsHndFfvTNUTDU6pFytBKLw10pizt4JG9fwFGjFyGI0WdGxXPa7wxGIw/hhdjIS20xtj5H+LdPvcRc10El//bh3375H8HjpzENzMNkF/KAQIzOLitwQwxNf2UbmcgsF6OH6OjcGBhzxfE4ArwpbgRf7f5Z7fbi7A3Jnotw7juneuPP4znUn8epTficVdrZ/1xPK/5JOw9EV7LxqF7e74o6SnVImVopZcGOlOWdghgvfxHREcdwMKezVHBl95A/BMG8/MabwwG44/hBaoLQnTp2kXJgPUxYP5HmPWqSP5fgSlMjHUUT3pCjGHlMBS9X9AvW62K/QabD9/p2B1ZoRnMTDvbH38gz5v+VbH4ZvNh3OmQs/4ont98EpqZod3h8FRqkXK00ksDnSlLK4yt4DC0d4vvtK5C7DebcfiJg/n5jTcGg/H0abuu/DOpyUbY4S/h67sTgb9noVrx+NOgOhlJxYPg2K/xl7kE0NE0CVTnIel2MXhwkGbFIyohF1UNh+qK0xAVeQsFCvvpavKTkNbykSMvxd3YcFxNzEVFWQEKGwV0QDYAcJIsxF+NQEx6icbHwNV5SbhdzAOcFFnxUUjIbeoBxWlRiLxV0HafISdBVvxVRMSko0Sxg6pcJGeUgUcdilOjEJVW0rBo5lEaswcL39+FuOxEXAwJRUppgw1kZbgTG4orYdeRJW17x0hWnom48Agk5D1WPARoGG91bjLSSznUFNxCXHq50jvh/KN7SM16BJ6TIDMmArGZUnAA+MJEXAoJRnDIVaRLeYArwI3fghEc/Bti7rWOyOqCZFwLi8CNnEdtHvlq0l9d21Z0KB44SLLicTUiBultnYXc5AyU8UBdcSqiotJQ0rDO4EtjsGfh+9gVl43EiyEITSmV66bGV2ptzZfjdkQIgoODERwcgsiMCvAAHmVew2/BwQiJzIB8G60MZXdiEXolDNez5H5oojoXyeml4GoKcCsuHeUNB9vkEzTEqKp8U6TT7Q0AMpRnxiE8IgHKw6EaBcnXEBZxAzmPWo5JRS3qjHECT6CXMjTJUmejauQmp6OUq0HBrTikNzhZ+zpVg/ykNBTx8qdgMXsW4v1dcchOvIiQ0BQ0lh619tMi3tTVIF56F7HhV5GYW4GygsKmGGIwGH89np2FdFUcPndxhPPiT7F163osmTwMk/2iUKl4Xmciq8Dtk9/g2G3FMqgCvhzxx7wxSdwf43yDcGqLO+Z5LMbsEXZw8g5B/NEPMHXWIqyY4wS7MVsQXQ3wkgSc/PQt2PYbi60RDWW/Lgl7PLxwIk+GmrRAuDu9ix+ySrSWLUeKmK894Lo+CMm5GTjrPQYDXfwQ2jRrNMOXx+OY9ySI+4+Db9ApbHGfB4/FszHCzgneIfE4+sFUzFq0AnOc7DBmS3TThYw05mt4uK5HUHIuMs56Y8xAF/iFloLnSxF3ZDUm2Ioxxf8kDi53wTtu8/GO/WDMDMgEx0tRUGYI8y48+NoqSKUVqJYBXNYxLHSajW9uPUBRlD9cxKOxtWlA1UjePx8uSw8iMT8T53y8EHCn5dJK9Xj5khgErpoAW/Fk+O7biXdHj8SI4YtwtKxFcy4PEd8uxXCrgXD79ji2vvUG3pw8CSPsxJjodw2PuvXBq8U/YvmMZTiYJgOE3dC7Rwb2uE/Hx0EF8kUeX4iQbcvgHRCOpOs/w3u0GGM3XkYZD836q23bgg7EGgBAGoOvPVyxPigZuRln4T1mIFz8QlHK8yiNO4LVE2whnuKPkweXw+UdN8x/xx6DZwYgk+MhLSiDoXkX8HwtqqRSVFTLVPqqXbYWGKO7fjr+vWQaZuy4CbNexhAAMHqlC+J270K8qBuMKAvHFjph9je38KAoCv4uYozeGo1qvgQxgaswwVaMyb77sPPd0Rg5Yjg89oW2zSd1MQoV+ZatcJey0+3dcLw6Gfvnu2DpwUTkZ56Dj1cAWodDCLYt80ZAeBKu/+yN0eKx2Hi5TOXF1ROPs5HO1EuDLNU24lESE4hVE2whnuyLfTvfxeiRI/A3dz/s1apO8ZAknMSnb9mi39itiKgBeGkBygzN0YXnUVslhbSiGjJ19tMq3lTXIACoS9oDD68TyJPVIC3QHU7v/gBVbmAwGH8B6JmAo6IfppKJDgho/tMxfov+fZ9TPLmD1NP1jYNJV2RDk5asoBUrVtCKpW40sb8luf2/qhbnPaRD0wzI3O0Xetzi0ya4AvrOWZ+MnDZQeKGMiGrp5iZ70u06gtZdvE/1RFSfsIns9fuSV2iNvEnh9+Ssb0pzf5b3Uxv1CQ2yX0cxj0k+9uPb6dvU+g7JllxYQWK71RTeqGxVJHnb6ZHFvJ+oSInpuILvyFnfiJw2hJO8i5u0yV6Xuo5YRxfv1xNRPSVssif9vl4UWkNEkgu0QmxHq5s7oEhvO9KzmEc/FXFEsrv05Sg9Mh22is5k1RKRlH5x70H6o7+ku7JGexmQ5dILJNdYRrc/f5OMHLdScj0R1cfRhkEGZL85geqJqCpyLQ3pu4jOSBq6qzxPSyx16bW10VTbjvFyObtpvJ4hDV51kUokqXQ55BaVKdqhNoo+GaBLFhO3UMj9eqKqNDowy5KEeo7ke6ueZGnbabjBAPrkWm3D+dfokwGGNOJf/yMZcVR80p0mrI8h+VGOcnaPIz1dB9qcUK9Bf/Vt26B1PEjowgox2a0Ob4rdqkhvstOzoHk/FRFHMrr75SjSMx1Gq85kUS0RSX9xpx76o+lLubOo4DtnMrBcShdqSKOv2mVrqqfkbX8jQ8tFdEYq/4QrOEQfrg2mR0Qku/05vWnkSFvlHVDchkFkYL+ZEuQd0O7xemQ4eBVdLJFQ6uUQulXGtcknTTGqMt8U6XR7V1Hk2iHUd9EZag6HJWSp+xqtja4l4orppPsEWh/TEGdcDu0ep0e6Dg3jV6xFnTXOJ9arJRpkabQRRzm7x5Oe4WBadbGEJKmXKeRWGdVrW6eIo8LvnUnfdC41hgVX8B05G1jSUnkwa7Rfe+NNfQ2qpahPBpH9uhj5eLkiOr79W1LqBgaD8ZfgGbkjzaMwJw81Cu+nUG0esu938qW8cBDcdze8bHjgOH77eQ2GNGyPbheCLjA20oGezRsY1lMIQA9iWyuI0BtvjLKECIDI2gq9dCogkcgHJDAxQZcWj2hFlmJY5XyF6WMX4vNTqdB13YiPBoo6ILsc5w78hDzboXBo3L9n9CZcZ4rx4PwJBEub+2xE0MUYRjp6sHljGORdiGFrJQJ6v4FRliIAIlhb9YJOhQQSAsrPHcBPebYY2twB3nSdCfGD8zgRLAWEXdDFWAgTexe42OgBMIa4f28IKqQoV/q+kRBizyOIOO4F67wwBO48hBgJj9rHNeBRiZC9h5E1eDwmmDWcbmADa4vGbTeaxyswNISewBTDnMfgZbOBcHYZgm6KUS4whKGBEC+PnAFnSxFgZAePrctgT8kID9f0VWPVCDsdgvw757HL3x/+/jtx/LELfP0WwNFQk/7q2rboohFt46H8HA78lAfboQ5N+0SN3nTFTPEDnD8RDCmE6NLFGEITe7i42EAPgLG4P3oLKiBV6ix1vmqnrSHCwCWemFR9GgFB+eDB4c7JWLwydyK6ABCKPXEk4ji8rPMQFrgTh2Ik4Gsfo0beAQz1BDAd5owxL5thoLMLhnQTtMknTTGqMt8U6Wx7V4Zg7+EsDB4/Ac3hYI3mcAjD6ZB83Dm/C/7+/vDfeRyPXXzht8ARysKh08bZmXppkqXJRhDA0FAPAtNhcB7zMswGOsNlSDeItKxTgAAmJl2gbCdMI5rs175401SDRLAUWyHnq+kYu/BznErVhevGj6DMDQwG469Bm2nvz0EE2+GO6NFYfBsQvOSINwfotf6wkxENeR8LRmnzFolOm32LOgId+T305g8gQIu37XVatxH0WYKjl/bB1SQcO+a+gQEjV+F0Lqe9bK4YuferwdfVtdgrKIK1lSUEdVJIHipZEuroKEw2OmjbhQAgAsChOPc+qvk61LXYjCiytoKloA5SyUPwbXTWgVCoAxCv8tsGBKLHSNyzDJ6BBRi62BMTLQQN48lD+v+kgFCkPDDbOV51k6kqRP1eR39joL62VqXeAAD+EUrLHkPfbibWbtiADY1/61djum2hev3VtR2gbKZVtK36eOCKc3G/mkdda2fBylKAOqkED3lAR0GgjlAIHRB4FYNW6asG2mNrgcVceM42QWjAQaRUxeGnu4Pg7tCQ1wIRHifuwTLPQBQMXQzPiRYQaOqgVT5pjlGozDdFOtfekpx0yMNBaTSAf1SKssf6sJu5tjkWNmzA+tXT0TYcOm+cXF7n6aVJliYbyVNWiZO1qlMN/2/TpiWa7adKlVbxprEGAX2WHMWlfa4wCd+BuW8MwMhVp6HEDQwG4y+C8ur3J9Dl7e3Yt2o4uot0AOhAaO6ID/f9CzMbb3M8LYSvwOJlwr2zpxFbq3jw6cDlpeB+bw/suZKO1HM+GJK7F147LkPr7oW90L+fKbjUeNxo2jPNo662DoJXh8LB4kndK0Sv/v1gyqUivrkD8HW1qBO8iqEOFh0IoEpcWDMDPmVz8N02Nzj2aJyZCdDphpe6iVCTcgOJCsYgnu/08RK1uNCor0YN3wN2g3pBKBRBqGRxScQBAlP0sjBCetBBXJE0H+OygvFrsql6/dW1TXryJy/CXv3Rz5RDavyN5hd1+TrU1gnw6lAHaGke9b7Sii54y9MD4tRD+MrvJCrGzUPfhovmygtrMMOnDHO+2wY3xx7QvgfNMUqdlW8KaLJ3r5deQjdRDVJuJCr0RZCHQy9YGKUj6OAVNIcDh6zgX9E2HDpvnDrdOk8vTbI02Uj7mOwomu3XLlU01iBCXsp99PbYgyvpqTjnMwS5e72w47KiFxgMxl+FdtWOPwSBBabuisLdjBiEhkYjIysWe2ZYdqKCPGR1MhA4cAp3B2rTD2LrpTqI9QE0HCeeV/GInwPPNyyMGiEA1OIONBEIPPjGfngOPMknFgDg8oLwRcBNVMMA1m/7YNMcaxjpG0BHa9ldMXWlJwZLTmF3YIb8zXG+CJfC8jBq5QcYo98spgmOB98wyTUi76J56UJEAM+DA9B16kp4Dpbg1O5AZMg7QNGlMOSNWokPxugDPAdORuBb3IEmarAfD0BgAAN94GFhAcpLYxGZWIS7WcWozM3Avcoa5IWfQ3Qhh+qKQiReL8a0+VPxUtZBrPE5j9w6oDbnJlJKOEjyc1BUoduu8RJkqG+zEFGER2lOdsPLrDwKzp5F0iBPfDDRAMIeluipl4+YizdRXHIbv+49jGtlMpTm3cODR0JMXuQGm+wAuI53h98PQTh1xB9L10XB2NZCg/46qtv2bXMLUvtY6zoVKz0HQ3JqNwLlzgJfdAlheaOw8oMx0AcPjpOB+BYXCXJngZc7CwZyZ6GgvBSxEdG4rcpXsSkN6rTH1oDIYQmWjynDiVOEaVO7N3zKo+JuFoorc5FxrxI1eeE4F10IrroChYmxSKmUj1em2IFCPmmKUdX5pkjn2tvw5WmYP/UlZB1cA5/zuahDLXJupqCEkyA/pwgVOpOxyM0G2QGuGO/uhx+CTuGI/1KsizKGPBxa16LOGqfgifXSQpauehvJU5YAWX3rr8fUsk4BAM/xIGqu2wIDA+jjIQoLylEaG4mciertJxeqKd401VwOeUFfIOBmNWBgjbd9NmGOtRH0DXQAvgyXtrrive2hLS5QGAzGc4/ipum/JLIs+v2AL/1DrE86AnOyn7VE/rLhihW05P0p9Hq3l+jd42VE9JjSz28ml55CElrNpB1nUhQEVVLa2S00xVJIor6zaee5ZMpJ/A9tm96HhKK+NMv/v3TrXjwFbX6bLIUispnlT8FJiXRuyxTqJRSR9cwd9GtGDdVe86GR/expksen5Ou3npYv96crRQ+1l51ZS0T1lH12I013dKDx85bRPxfPJ8+vwqm4zUtfRFSZRme3TCFLoYj6zt5J55JzKPE/22h6HyGJ+s4i///eonvxQbT5bUsSimxoln8wZdYS1WefpY3THclh/Dxa9s/FNN/zKwov5ohISkmnfMi5h5B0xfNo14VUyrgaSCtHmpHAyIGWHoikfE5GmYfeI7F5dxLP3EUxjzjKP72Shvc0IfN+Y2np3lD60cOKzPpOpS+ipUSchOK+9yAnK3Mysx5G0z7ypSVONjTC7TM6FF2odrxc2U06uWESWQiFZOmykU7GPyBlZqD6BNo0VI8snObS0g/X0Mcfvk+zXD+jczmyhhMeUuT2ydTH1JQsHebQF6EXaK1jfxq30JeOXX9ARFWUdsyLJtqak76eKfUZtZwOpzS+4aRJfzVtW9GBWJM7i85unE6ODuNp3rJ/0uL5nvRVeDFxRCRNOkU+zj1IqCumebsuUGrGVQpcOZLMBEbksPQAReZzJMs8RO+Jzam7eCbtiqlQ6at/hYS3z9YtkPxnCU31u0Ut37vi8k/TyuE9ycS8H41dupdCf/QgK7O+NPVfIRR+cgNNshCS0NKFNp6MpwecPIYV84lIXYySinxT1Lbz7U1ExEni6HsPJ7IyNyPrYdPoI98l5GQzgtw+O0TRhRxRVRod85pItub6pGfah0YtP0zycFBei558nHI6rldbNMpSaSOOym6epA2TLEgotCSXjScp/gHXoTqVlHiOtkzpRUKRNc3c8Stl1BCRLJMOvScm8+5imrkrhh6psx9XRjfbHW+qaxBRLV3zGUn97CeRx6e+5Ld+OS33vyJ/8VuWSd9PeYV6Tt1HWY2lhsFgPPfoUMtLfAbjRUCWiM3DRuDMtCjc2ObQtJ2AwWAwGAwGQxs6b+cEg/HcoXzzDoPBYDAYDEZ7YAtpxouHrBzlDzlUlEna/CIZg8FgMBgMRnthWzsYLxa1mbh0+P8hIrsCMpEZrMfPxSLnvni6X7LIYDAYDAbjrwhbSDMYDAaDwWAwGB2Abe1gMBgMBoPBYDA6AFtIMxgMBoPBYDAYHYAtpBkMBoPBYDAYjA7AFtLPFDweZSUjU/qMfi0b/whZyZlon3o1yE++jeJ2ndse/izbVCEn4RbyahQ/f1KeltynQFUOEm7l4XlQlfHswj/KQnKmtOlLJ6tyEnDrj0wArerXH4129a0mPxm3O6+4MhiMJ+DFWEhXZ+DSwa1Y7DIao0aNxthJUzHb1RWz/zEb7ivW4f9OxqDgT/4eNC7vd+zyGA6b112xP70dv7n8h8Ih7/dd8Bhug9dd90O9ejykCcfwsbMtbMdvR2Qn2PXPtA2fvR8LRozEsiNFnfqt009LbufDI3v/AowYuQxHip5tTRl/BrW4unEkBoz9BCElKuKDy8Pvuzww3OZ1uO5Pl/8UOJ+N/QtGYOSyI3j6YaVN/frj0aa+8dIEHPvYGba247G9M4org8F4Yl6MhbTRAExeshYzLf6H2FQLfPDf8zj18884deJbfDSiFmdWj8XrIz7Ef3I4xZZ/GMLeE+G1bBy6P5NfoiJE74leWDauOzSrJ4CZgxvWzBC349z28WfaRmC9HD9GR+HAwp5NycKX3kD83SeLFWVyn00EsF7+I6KjDmBhz/Zr2hk2YjwH1N3A2YvAnB2b8PceKuJD2BsTvZZhXHdCUwYLrLH8x2hEHVgILcKqg2hTv/54tKlvAjMHuK2ZAXE7zmUwGH8MT72EPTuIYNbVBDo6QggbR23QCyM8vkbIuc/w2v8CsNjjG6T9iXO/0MwMpjqKnz4rCGFmZor2qSeAqYlxO89tH3+ebYxh5TAUvQ0a/1+F2G824/Ad9XeONKMo9xnG2AoOQ3uj/ap2lo0Yzzpcbg5e/fQEto7pqnioNUIzmCkksLGVA4b+YQmgTf3649GmvglMTWDcznMZDMbT59laSNdkI+zwl/D13YnA37NQrXj8KWE83Bu+bq+i8urX+OZyy16rUZB8DWERN5DzSNPzxzqUpEcjLCwWmZLWq3FZ2R3Ehl5B2PUsSNss1GUoz4xDeEQC8h4rHgMgK8Od2FBcCbuOrLaNW1GdlyTfN8dJkRUfhYTcqoYjdShOi0LkrYK2+1w5CbLiryIiJh0lyp4UysqRGReOiIQ8KFMP1QVIvhaGiBs5aGkigY7ySs9JshB/NQIx6SXt+FVBDbYBB0lWPK5GxCC9jfLVyE1ORylXg4JbcUgvl9uuIzaqyU9CWhEP8KWI2bMQ7++KQ3biRYSEpqC0cczq7Fidi+T0UnA1BbgVl44GVZrltkSdHEWqcpGcUQYedShOjUJUWon8sXlL1MnjpbgbG46ribmoKCtAYaMp2lCD/KS0Vo/gq3KTkVHGA3XFSI2KQlpJQ8/qbKQiVlTZR3X+8ZDejUX41UTkVpShoKXiWuQLANSVpCM6LAyxmRIonq0uVlWOvwXq2kND39UFybgWFoEbOY9ab/1RaauWtLUPX5iISyHBCA65inQpD3AFuPFbMIKDf0PMPXWVVnVdAwB0fxOjeubiuooxysozERcegQRlCVyTj6Q0ha1NNYVIuRaOyMQcVCgrueriWRkdrF9tqM5D0u1i8OAgzYpHVEIumipHcRqiIm+hQLFwqK1PaEd9UxH/Ah3lFwTa2obBYHQKz85CuioOn7s4wnnxp9i6dT2WTB6GyX5RqFQ876lgjNGTR6IrFSIyNAUAwBeGYNsybwSEJ+H6z94YLR6LjZfLlO5n5UvDsGOBB/7vcg5Kkr7FdPEweJ0pBA8OWccWwmn2N7j1oAhR/i4Qj96K6MZ5qzoZ++e7YOnBRORnnoOPVwDutJiruKxjWOg0G9/ceoCiKH+4iEdja1PjZvjyeBzzngRx/3HwDTqFLe7z4LF4NkbYOcE7JB5HP5iKWYtWYI6THcZsiW66QJHGfA0P1/UISs5FxllvjBnoAr/Q0qYxVifvx3yXpTiYmI/Mcz7wCrjTYsLnURiyDcu8AxCedB0/e4+GeOxGXC5TZiEAkCLmaw+4rg9Ccm4GznqPwUAXP4Q2rbIU0GAbSGPwtYcr1gclIzfjLLzHDISLXyhKeR4lMYFYNcEW4sm+2LfzXYweOQJ/c/fDXi1txEsScPLTt2Dbbyy2RtSAlxagzNAcXXgetVVSSCuqIVNnR74EMYGrMMFWjMm++7Dz3dEYOWI4PPaFtpLbPCQVcloMG5AvVuOOrMYEWzGm+J/EweUueMdtPt6xH4yZAZlNPlIrry4Jezy8cCJPhpq0QLg7vYsfshUXgzwkCSfx6Vu26Dd2KyJqAL40DkdWT4CteAr8Tx7Ecpd34Db/HdgPnomATE6FjVTESmmRUvssOlqmJv/qkLTHA14n8iCrSUOguxPe/SEbMi3yBZDbMGzHAnj832XklCTh2+liDPM6g0IeamNV0/jlqG6vsW++ECHblsE7IBxJ13+G92gxxm68jDKZ8lhadLSsxaAAqLAP360PXi3+EctnLMPBNBkg7IbePTKwx306Pg4qaLOQh9q6Bs1jRDWS98+Hy9KDSMzPxDkfLwQ0JjAvQcLJT/GWbT+M3RrRdOFaEf0FZk7bgph6fVT8+iGc7P6GCW+9g9nbQ1GtKZ6V0Cn1iy9H/DFvTBL3xzjfIJza4o55Hosxe4QdnLxDEH/0A0ydtQgr5jjBbsyW5tqusj41HNdQ31THv3K0tQ2DwehE6JmAo6IfppKJDgho/tMxfov+fZ9TPLmD1FL4yn4kMnOloCrFY0S1Eaupv0hAFkvOE3HFdNJ9Aq2PqZUf5HJo9zg90nXYTAn1Cg25Qjrhaksu3+cQR0RUn0JfjutGvRaepkrZbfr8TSNy3JpM9URUH7eBBhnY0+aEeiKqosi1Q6jvojMkaRBVeX4JWeq+Rmuja4lIRrc/f5OMHLdSsrwxbRhkQPabE0hRBSIiruA7ctY3IqcN4VQoI6Lam7TJXpe6jlhHF+/XE1E9JWyyJ/2+XhRaQ0SSC7RCbEerwx83SKiiSG870rOYRz8VcURVkbR2SF9adKZJOzq/xJJ0X1tL0bVEXPFJcp+wnppNtJvG6emSQ4N+Dw9NIwNzN/qlQbzkwgoS262m5u4iydtOjyzm/URFbVysyTYSurBCTHarw6lZnDfZ6VnQvJ+KiCOOcnaPJz3DwbTqYglJUi9TyK0yqtfWRkTEFX5PzvqmNPdnedBwBd+Rs4ElLb3QcIImO3I5tHu8HhkOXkUXSySUejmEbpVxbeRqlKOI7C59OUqPTIetojNZtUQkpV/ce5D+6C/prkyzvNqoT2iQ/TqKeUzy/Du+nb5NVRpZVPi9M+mbzqVGVWV3v6RReqY0bNUZknf9C7n30KfRX94lmRIbqY0VZfYpLVSdf1VR9Mkge1onV5y4ouO0/dtUqtcqXzgqPOFKti7fU448aSnly3HUrddCOl2pOVY1jV99e3V9c1R80p0mrI8h+cg5ytk9jvR0HeQ1Q5mtyhRio1aVfYhkadtpuMEA+uRag11rr9EnAwxpxL/+R7LWUtTXNY1jJKqKXEtD+i6i5vJxnpZY6tJra6PlY+MK6XtnfTKd+zNVERHVJ9O2v3WhYdtS5brU36TPhuhTv5Vh8vM1xHMbnrB+tYIroO+c9cnIaQOFywsH3dxkT7pdR9C6i/fltT1hE9nr9yUveXHVUJ801DdN88/DQzTNwJzcmourdrZhMBidyjNyR5pHYU4eahTen6DaPGTfV7xL9nSgykpUkwAmZuZAdRhOh+Tjzvld8Pf3h//O43js4gu/BY4wVGwoCcbJEH04DGt4aUz0Oj4JK0P+4ZkwForheSQCx72skRcWiJ2HYiDha/G4hgcqQ7D3cBYGj58AswZRBjbWsBA2ChZC7HkEEce9YJ0XhsCdhxAj4VH7uEbpXQZBF2MY6ejB5o1h6CkEoCeGrZUI6P0GRlmKAIhgbdULOhUSSAgoP3cAP+XZYqhD4x5FI7zpOhPiB+dxIliKypC9OJw1GOMnNGkHG2sLNKpXHXYaIfl3cH6XP/z9/bHz+GO4+PphgWMbCwEox7kDPyHPdiiau3sTrjPFeHD+BIKlCqdrsk35ORz4KQ+2Qx2a9u0avemKmeIHOH8iGFIIYGioB4HpMDiPeRlmA53hMqQbRFraCAAEJiboovQ5qhxNdoTAEIZ6ApgOc8aYl80w0NkFQ7oJ2sjVKEcRYRd0MRbCxN4FLjZ6AIwh7t8bggopytvhX5GlGFY5X2H62IX4/FQqdF034qOBIoVOAEAAE5MurR4lC7t0gbHQBPYuLpB3LUb/3gJUSMubXyZrgdpYUWYfgwjV+SeyhNgqB19NH4uFn59Cqq4rNn40ECKt8kWC4JMh0HcY1vCimwivfxKGsvzDmGmsOVbVj19Te3V9VyPsdAjy75zHLn9/+PvvxPHHLvD1WwBHQyi3VTeFEq7SPlqirq5pHGMlQvYeRtbg8WguHzawbi5ugMAEJi0TQJaNrLy65i1hIhvY9AYKsrPxuAP50an1S9AFxkY60LN5A8PkhQNiWyuI0BtvjLKECIDI2gq9dCogkRdX9fVJU33TZv7pgG0YDEbn8owspEWwHe6IHi3qLAAIXnLEmwP0Wn/4VJAhMz4BJWSOYSMGg39UirLH+rCbuRYbNmxo+lu/ejoGKMxIXFkJHtRIUd648mqFAKLHidizzBOBBUOx2HMiLATy87i8dPxPCghFql0gED1G4p5l8AwswNDFnphoIVC6UAEA6Cjum9OBQEd+a7/pE4EA8tfWORTn3kc1X4e6Fvv6RNZWsBTUQSqRICf9f5BCCOXq8XhUWobH+naYubbZPhs2rMfq6QPaTtpcMXLvV4Ovq2ux/1gEaytLCOqkkDxsvdTRZBuuOBf3q3nUtVYeVpYC1EklkItTsvrVykaNH+hAxXbvdtjxoXwRp6x9K7ntlNMKRb10IBTqAMSD2iEPfZbg6KV9cDUJx465b2DAyFU4navsAT+go2i3Nv8XQt61suhsR6wo2Edt/un1wZKjl7DP1QThO+bijQEjsep0Ljht8oUrQ8mDGkjLJW2PtydW1Y1fU3tJqeq++UcoLXsMfbuZWNti3BvWr8b0xsKjLJZaIlBtH21QW9c0jjEH6fIEVjPB6ECnZQDrvYmpb72CjCu/4R4HoPY20nPM4TxtHLq0I54VKgjyOrN+tck1QKdt4YAA8m8l0VSfJDnq65va+G+jnLa2YTAYnY3yTP4T6PL2duxbNRzdRTryRYG5Iz7c9y/MbLxkf4rwZb/h68O3IBy0BB+9YwKBaS9YGKUj6OAVSJrO4pAV/CuSFG6QC1/pA0vDYgT//BvKGz/kyxAccBwZFRewZoYPyuZ8h21ujujRWAQJ0On2ErqJapByIxG1zeIAEHgeACpxYc0M+JTNwXfb3ODYsvETI0Sv/v1gyqUi/kbzHlK+rhZ1glcx1KEXXnqpG0Q1KbiR2Fo7EA8eApj2soBRehAOXmm2ELgsBP+a1PaFN2Ev9O9nCi41Hs3d8airrYPg1aFwsGgdhppsI+zVH/1MOaTG32h+IZWvQ22dAK8OdYCCuKeIJjtatDPBOktOI5rlUV4K7vf2wJ4r6Ug954MhuXvhteOygr07Ay1jBVCff7V5SLnfGx57riA99Rx8huRir9cOXK7VIl+Er6CPpSGKg3/Gb81Ji7LgABzPfEWrWG2Dplh/1UJ13/8zRi8LI6QHHURrUwXjV8XCowpOlX0ACEUQgqB4vUPUdpmttq5Bwxh7vYSXuolQk3IDbcuHimWd4GXM3L0XHvpX8PW23dj1+WkYfhqMo0utIWxHPCtUEHTrzPqlJZrqU6+X1Nc3tfHfRjltbcNgMDqbZyfHBBaYuisKdzNiEBoajYysWOyZYdmJChLq6tq+yiwrDMWOeUtxtGYSPj+8CSMMABhPxiI3G2QHuGK8ux9+CDqFI/5LsS7KGH0V7wh0nYJFc3uj6OgK/GP1vxH0n+PY9aEHgkQj0bfyLrKKK5GbcQ+VNXkIPxeNQq4aFYWJuF48EfOnvoSsg2vgcz4XdahFzs0UlHAS5OcUoaKyAnezilGZm4F7lTXICz+H6EIO1RWFSIyVvxDZCo4H37QIl0MAqMXdVSICeB4cgK5TV8JzsASndgciow4AeBRdCkPeqJX4YIwhXp42H1NfysLBNT44n1sH1ObgZkoJOEk+cooqoDN5EdxsshHgOh7ufj8g6NQR+C9dhyjjvhAB4DhOPmnxANAVU1d6YrDkFHYHZsjf7ueLcCksD6NWfoAx+s06A4Dg5WnqbaM7FSs9B0NyajcC5cqDL7qEsLxRWPnBGMjFESCrbz0pamkjAADPgafmNgIDA+jjIQoLylEaG4mciers2DAwAmT1CjOgglz1/lAwEOTtORmBJ75pqUgkX6jwvGZ5XF4Qvgi4iWoYwPptH2yaYw0jfQOlNzx5jgcR33Rni+c4yIhvcQeaQCDwvPwcRRvdHaU+VtrYR13+6eQh6IsA3KwGDKzfhs+mObA20ocBaZMvXTFl0Vz0LjqKFf9YjX8H/QfHd30IjyARRtp20xir6sevKdbV9W2KyYvcYJMdANfx7vD7IQinjvhj6booGDcWHkVbKcKpsI8OIOxhiZ56+Yi5eBPFJbfx697DuFYmQ2nePTx4pPCVE2rqmq1QwxgNX8a0+VPxUtZBrPE5D3n5uImUEg6S/BwUVVQD4MHx1GJhLcGFDVuQN+tr7FjvhTVbv8DW+fZNWx80xXNrBE9cv1rDgecVLgLkhaP5Mo0IBB68vLiqrU+Gmuqbjpr4lxdXcA3xhvbYhi/Dpa2ueG97aIuFOYPB6DQUN03/JalKp8uBW2m6lYh0dC3Icfp7tGjpEvJwnUrjRk4g17X7KbJA4RWTqjQ65jWRbM31Sc+0D41afphSlLykSCQ/97jXRBK/bEJdLYeR266rVMIREZdPp1cOp54m5tRv7FLaG/ojeViZUd+pX1C0lIiTxNH3Hk5kZW5G1sOm0Ue+S8jJZgS5fXaIogvrKf/0Shre04TM+42lpXtD6UcPKzLrO5W+iJa27r8yjc5umUKWQhH1nb2TziXnUOJ/ttH0PkIS9Z1F/v+9Rffig2jz25YkFNnQLP9gyqwlqs8+SxunO5LD+Hm07J+Lab7nVxRe3PhyCkeSuO/Jw8mKzM2sadi0j8h3iRPZjHCjzw5FUyFHVJV2jLwm2pK5vh6Z9hlFyw+nUBURPU4/T5tdepJQaEUzd5yhlIdERPWUfXYjTXd0oPHzltE/F88nz6/Cqak7BdTbhiOqz6azG6eTo8N4mrfsn7R4vid9FV5MHHFUdvMkbZhkQUKhJblsPEnxD7iO2ag8jc5tmUK9hCKynrmDfs2oIZJl0qH3xGTeXUwzd8XQI1JjR66Mbp7cQJMshCS0dKGNJ+PpASf3Vxu56uS0QUpJp3zIuYeQdMXzaNeFVMq4GkgrR5qRwMiBlh6IpHxOvbzaaz40sp89TfL4lHz91tPy5f50RcmLSZVp52jLlF4kFFnTzB2/UkZxEp3ycaYeQl0Sz9tFF1Iz6GrgShppJiAjh6V0IDJfqY2Uxooq+5Ca/Ku9Rj4j+5H9JA/61NeP1i9fTv5X5C+Ytjtf5B1Q2nEvmih+mUy6WtIwt110taSxczWxKm3H+NW119h3FaUd86KJtuakr2dKfUYtp8MpVapjSRGV9iEiekiR2ydTH1NTsnSYQ1+EXqC1jv1p3EJfOnb9gaIk1XWNSPMYOQnFfe9BTlbmZGY9jKZ95EtLnGxohNtndCj6LqWd20JTeglJZD2TdvyaQcTl04n3rUhfBwTokI5AlwxMe1D/cZ509Lb8pTt18dyWjtev1lRS2tktNMVSSKK+s2nnuWTKSfwPbZveh4SivjTL/7906148BW1+myyFIrKZ5U/B8uKqoj7J0VjfVMX/43Q6v9mFegqFZDVzB52RF1f1tpFl0vdTXqGeU/dRVpu3ShkMxpOiQy1vxzEYDAaD8UfD5+OsXwAe/cMDDvwDSCoqUV0pQcGtn3GkcBmCv53c8KSJwWAwni3YQprBYDAYfyI88o+8izH/nY7rpz3QvcWR6htfYOv12fjcs1/TN24wGAzGswRbSDMYDAbjT4RH8ZmPMHHBcdQ6TsM7I8ToYcihIi8LxS/NwOat76Jf243LDAaD8UzAFtIMBoPB+NOpzY/F+bNhSC6ohtDcCm9MnoG/D+7O7kQzGIxnGraQZjAYDAaDwWAwOkDnfbscg8FgMBgMBoPxAsEW0gwGg8FgMBgMRgdgC2ll1OQj+XZxp/20alVOAm7lKfzgAUMz/CNkJWdC2lmO+EPh8SgrGZnPp/JPlZr8ZNwu7jy7vDj5pV1MdbadOwfFMVQhJ+EWlLmPr8hGfGQ0UoqUHHyO6ZRxVeUgKb200+aoZ5UXJ7eff5643vAVyI6PRHRKEZ7E41U5SUgvfQI9OsCLsZDmshFx9Ct8NGMsRo95G++t8ISnp/xv2cJ/4K0J72NvmgzgpUg49jGcbW0xfnuk/Be7nhQ+G/sXjMDIZUdQ9Mf69jmGQ97vu+Ax3Aavu+5HupofcnsW4fJ+xy6P4bB53RX7nzflnyK8NAHHPnaGre14bI/slOx6YfJLm5h6KnbuBJSNgc/ejwUjRmLZkaIWi0IO94I+hefOc4g+8xlcxIPx/tF7LSQ9r3TCuPgSxBz0wjjbAXjri5jOmaPUwqPk+k/44qNZmDB6LGZtDVP4dcQ6ZIUdxudLp2DctA/xf8ciWx19Il6Q3H7e6Yx6w90LwqeeO3Eu+gw+cxFj8PtHca/p54XbB18Sg4Ne42A74C18EdMxPTpM699n+StTQ6Ef2ZBQfxodkv8YVNPnaV8voY1h8l+XIy6XvpmgT+Zuv9Djlqc9AZXZNykxt7OkPU9wVBJ/nTI79GtatRT5sZj0X1tL0fIfNnuuqI38mMT6r9Ha50L5J/GTdnC539AEfXNy+6Xz8uFFyS9tYupp2LkzaDuGSsq+mUgt3ccV/Uizer1N+8uIiHtAl/3eJ8/A280nPHWeTj502rhkmfTFKH16ZdHZTpujNFJ/lw7OtCChyJJmH8kiRdNU/XcxjVwTQZojUzu0zm2uhOKvZ7bRj/F0eaJ6wxXRj7N60dvyxKAHl/3ofc9Aut0BJ8oyv6BR+q/QorMd0OMJeDHuSAMAhOjStYuSW/D6GDD/I8x6teGLSgWmMDHWUTzpiTC2csDQ3gaKH//1qYrFN5sP4476G2gqEMLMzBSd64k/DqGZGUyfF+WfyE/aITA1QSen1wuTX9rE1NOwc2fQdgzGsHIYipbuq4u5jMgqY5gaABB0h/Omo9i76LWWjZ4uTykfOm1cQpNOn6M0IuqDNx3745VuFfjvSnfsiK1sdVjY1QyvmJoomV+fDG1zuyr2G2w+fAed7DqGBp6o3tTF4HJkFYzliYHuzptwdO8ivNaB770UmjyBHk9AZ8f9k1GTjbDDX8LXdycCf89CteLxp0F1MpKKB8GxX6PXBNBR64hq5CXdRjEPcNIsxEclILeq4VBdMdKiInGrQGGHT00+ktJaPLrkpbgbG46ribmoKCtAYWP7jsgGwEmyEH81AjHpJeof9VXnIel2MXhwkGbFIyohF83i0xAVeQttxXOQZMXjakQM0ksUpVchNzkDZTxQV5yKqKg0lDRUML40BnsWvo9dcdlIvBiC0JTG/XwylN2JReiVMFzPkqLN0xtZOTLjwhGRkIfHiscAgJMgK/4qImLS0Uad6lwkp5eCqynArbh0lCsK5x/hXmoWHvEcJJkxiIjNhJQDAB6FiZcQEhyMkKvpkPIAV3ADvwUHI/i3GNxrFYjVKEi+hrCIG8h5pPi8UYbyzDiERyQgT6nyQHVBMq6FReBGziOV+xur85Lke804KbLio5DQHAQoTotC5K0CJXvIOtlPsjLciQ3FlbDryJIbqYnq3GSkl3KoKbiFuPTytj4EVNtJoKP+4qgjMfqXzS+0I6a0tLO6/FGkugDJ18IQcSMHrUK9KhfJGWXgUYfi1ChEpZVoWLioH0NNfhLSingAtciN+w0XY+6ignuAtMvB+C0qE48aT1SlD6qRm5yOUq4GBbfikN4i8VXlW1VuMjLkCYHUqCikNSSEynyQC1Pev8p4a6Sj4wJQV4L06DCExWZC0jQsnRZzVB2KUq4p8YGaOqtRXxXodMesL7/HXLN4bH9/FU4XKiqrgNpY4yG9G4vwq4nIrShDgSolFHNbZezxKI3Zg4Xv70JcdiIuhoQipcU+WVVxoLKWqfKJStupsbcS6krSER0WhthMSZtz1dUbVXHbEnXtoaFvre3UiLJ6o2YOaaQ2Nw6/XYzB3QoOD9IuI/i3KGQ2J4by2taA0nHotNCjrggp15TYqB16acuzs5CuisPnLo5wXvwptm5djyWTh2GyXxRaX/d2MrIK3D75DY7dVhZuivAojz8G70li9B/ni6BTW+A+zwOLZ4+AnZM3QuKP4oOps7BoxRw42Y3BluhqgJcg4eSneMu2H8ZujZAvfuqSsMfDCyfyZKhJC4S707v4IbtOe9kAAClivvaA6/ogJOdm4Kz3GAx08UOo4kZ7vhzxx7wxSdwf43yDcGqLO+Z5LMbsEXZw8g5B/NEPMHXWIqyY4wS7MVvQLD4GX3u4Yn1QMnIzzsJ7zEC4+IWilOdRGncEqyfYQjzFHycPLofLO26Y/449Bs8MQCbHQ1pQBkPzLuD5WlRJpaiolgFcFo4tdMLsb27hQVEU/F3EGL01uumCqTp5P+a7LMXBxHxknvOBV8CdVgkrjfkaHq7rEZSci4yz3hgz0AV+oaXg+RLEBK7CBFsxJvvuw853R2PkiOFYdLSsoSWHvIhvsXS4FQa6fYvjW9/CG29OxqQRdhBP9MO1CgG69XkVxT8ux4xlB5EmA4TdeqNHxh64T/8YQQVyLfjCEGxb5o2A8CRc/9kbo8VjsfFymbzgVCdj/3wXLD2YiPzMc/DxCsCdlsrzhQjZtgzeAeFIuv4zvEeLMXbjZZS1cBVfHo9j3pMg7j8OvkGnsMV9HjwWz8YIOyd4h8Tj6AdTMWvRCsxxssOYLc1262w/cVnHsNBpNr659QBFUf5wEY/G1uhq8CUxCFw1AbbiyfDdtxPvjh6JEcMXocnMjeNQZydVdCRG/7L51XBcQ0xpa2eV+aN4IngUhmzDMu8AhCddx8/eoyEeuxGXS4sRd2Q1JtiKMcX/JA4ud8E7bvPxjv1gzAzIbDu5Qv0YeEkCTn76Fmz7jcXWiBoAhLqqCkir6gGqR1WFFNKHNeB4FfqUyVASE4hVE2whnuyLfTvfxeiRIzB80VGUqci30uI4HFk9AbbiKfA/eRDLXd6B2/x3YD94JgIy65Xmg0p7lPEq4k1xcaPtuHj5wjBsBxZ4/B8u55Qg6dvpEA/zwpmWi9e6e/hpzVy4ey7HDIfBmHXgrtwH6upsu/RVjaDXXASc2ACHkiNYtmAPUmoVz5CjPtbqkLTHA14n8iCrSUOguxPe/SG79YWAYm7zpepjj5eioMwQ5l148LVVkEorIHedijgoUlXL1PhEle3U2VsRvhRhOxbA4/8uI6ckCd9OF2OY1xnI3aq63vCl6uK2MfNUt9fYt9Z2ajEmJaiaQxShuipUSKtQD0J9VQWk0oeo4Xj1tU3dOBqou/cT1sx1h+fyGXAYPAsH7spt1F69tEZxr8efA0dFP0wlEx0Q0PynY/wW/fs+p3hyB6mn6xsHk67IhiYtWUErVqygFUvdaGJ/S3L7f1UtzntIh6YZqNgjzVHBd86kb+REG8ILSUZEtTc3kb1uVxqx7iLdryei+gTaZK9Pfb1CqYaIiCuk7531yXTuz1RFRLVRn9Ag+3UU81gur+j4dvo2tb5DsiUXVpDYbjWFNypaFUnednpkMe8nKlI0G1dA3znrk5HTBgovlBFRLd3cZE+6XUfQuov3SS5+E9nr9yWv0BoiktCFFWKyWx3eZIeqSG+y07OgeT8VEUcyuvvlKNIzHUarzmRRLRFJf3GnHvqj6cu7sqbxGFgupQsN289ltz+nN40caWtyPRHVU9yGQWRgv5kS6uW6rx3SlxadkTT0Vknnl1iSbuMeackFWiG2o9XNg6VIbzvSs5hHPxVxRFwO7R6vR4aDV9HFEgmlXg6hW2UtjVBLUZ8MIF2LibQl5D7VUxWlHZhFlkI9cvS9RfUko7Ttw8lgwCd0rWGjX+21T2iA4Qj61/9kRFwxnXSfQOtjGg5yObR7nB7pOmymhPoqilw7hPouOkNN2p9fQpa6jXtBOSo+6U4T1sc07CHkKGf3ONLTdaDNCfUNLRrEFnxHzvpG5LQhnORu+v/tnXlcVPX+/1/MjKyKaGoiKYs4ZmVK8DX3NS8/y0yvGaapuMbthkvqdbu5G1nXvHnrupRbahb3mqUmuBTgAqioKItgigKyCzMoIMuc8/r9MawDMwNo5tXP8/Hg8dBz5rO936/35/OeM59zzgV+2L0Jm/dawKN6EfDih91p5ebPkGL+Dn7S8cpHL9PWcwX1bjrLRS9Ys/vSiywjKSWv50BLG3addZTZmjgeD77EGmY2aSeSd7bzdWsje+karNHHOb7MaKqhdjYXP9WQsvZy/KCFrKp6PQdYNqHH0oss013np30sae81iz8llZDU8r/j29Cq76e8XmtPo5kxkJQyvuQQK3u+9X3VHFz4zRu0dvBhYPkhk/2hxOT1A2lp05WzjmZTE3ecwZdymGEi3nTXP2UfS3t6zfqJ+iH8l+PbWLHvp9epqxUPptsvNKq32jRkXCUZ39LH3ZtfJut9Uxb7KQe0bMdJ+wtIZnOTtzWb9VrCsGyJ5F3+OMmR1gM+403J9DxrPD7MUcbY1aPof6yYpI5JO9/kMyobdp19jLkSWRzyAUct088RZrVWEs55L3TnAn0nKGXu4ep/xenLVscgtmlOe1I6vxhiTadph/Vrr5l5t665LCfDuE+M+dqUvWsiMeNbH7p7f0m9W8sY++kAtmw3ifsLzM83pnVrrrypthtupxpzPg3nG9NrSC0Kv+Eb1g70qQoME3ObqXGQzN5Eb+tm7LUkjPrQ+JGTHK054LOblBrarwbwiFyRlpGRnIpig3cssiQVN2/V/9tyvVC+gPHrN2HTpk3Y9NUeHPl+Dl4s3x5tHgWa2tnCwtIVL3m1hRKApdodziqg/Ut94KQCoHKBczsL5Gs0IAAomqFZ06ofPVROajgnf4YR/Sfho31xaOKzBO8/p2pE3Xk4+NV3SHXvBo+KLWS2L8NnpBq3D32LIG1lk3oUTWFnawFL15fg1VYJwBJqd2eo0B4v9XGCvnpntLPIh0ZDIO8gvvouFe7dPFBVvQ9Gqm/j0LdB0EKJpk3toGzWHd7errAEYKfuhPaKfGjz6n5ZplLth50n9sDfJRWh29Zie6QGcsk9FMtAQfBG7EjqioGDHMo/bQ1XF8fK1wPnHfwK36W6o1vVYPGyz0iobx/Ct0FaQGEDG0sF7L2GoF9rBzw3xBsvtqwubwVsbKyhbN0bbwxxggq26OK7AtO7EzFhYTD71J6iUOwPTsPVQ+sQEBCAgLV7cM97OVZO9IRNQTA27khC14GDUNl7Vxc4Vu7xKkLo/mCkXT2EdQEBCAhYiz33vLF85UR42lQ1AQCKpnawtbCE60te0LtJDXe9CNBHLwK4OLeDRb4GGuJ38JMSar+dOLHHHy6podi2djsiNTJK7hVDBqCwsYGlwh5eQ/qhtcNzGOL9ImqY2ZSdqn2sThqqUTzG8WVOUw20s9n4qUZR6H4Ep13FoXUBCAgIwNo99+C9fCUmetoAyqZoaqdEs+7e8Ha1BGAHdaf2UORrUUtO5sYAQNGsGaq5r05M9gcK2NhYQmHvhSH9WsPhuSHwftEaJ0zEm7JpU9gpm6G7tzf0Q1CjU3sF8rV5+jm7Ae0b15t5TNWrCdqLYCsPeLXVB5fq+XkIzU3DjpF2leVtn30ZPVorAFijQ4c2gFYDjWx6nr2f/lahhOvEr7Bn3nO48YUvpu1MqvFrhFmtqZygdk7GZyP6Y9JH+xDXxAdL3n8OtXphENsN0h5gdt6tay6zPmHcJ8ZsZ8reNdEgaG8wrDy8oHerCs/PC0Vu2g6MtDM/35jWrbnyptpuuJ1qzPm1ML2GmMXk3GZqHBUV2OLZl3tAHxodoA8NDeT77ZcJTJrj4aGCew9PtDHYXK5o5YmXO1vWPPiAUb34Dib2qf/NDBaGG6gtFNBfSK88AIUCqHrxukWNMooOU7Hr2Cb4NAvDmrdeQufes7A/RT8NNahuKQspt4ogl5ZW2y+rgouzExSlWmjuGEqj+r668iMKC/21/6oDUIDQV5+CW0UySkurbepUucDZSYFSrQZ35Nr9tVAqYQFCrnNSA6BQ4V70Bkz324b0blPgN9gRCkK/9SLhN2ihhKpORUrISrmFIrkUNbvjDCdFKbSaO/pAMLMg10LVEc93sgPKSlBirM/lyHdzkHvPCl1GzseiRYsq/xbOHgH3jAT8pgWUdXcekO8iJ/cerLqMxPxqZRctnI0RnQ2Wj+p7vPQHUNtNVQL7PfykUN1D9Ibp8NuWjm5T/DDYUWGgQuOYspPhUGvTMI2WH3gs40uTbFpTDbNzPeMHACDjbk4u7ll1wcj51bS6aCFmj+gMVa1xWkCptAAo10pCpVTTYwCg17spQZntD2or0ly8GcaYhRL6IRiOAGbbtzShN9OYqtcd+dm3UazN039ZrgdKhRKQdCiDqXnWdHw0DAf0X/Ud1r9GHJz1NlZfqPh5vB5aU3TA1F3HsMmnGcLWvIWXOvfGrP0pdWwNqhnbtWPMuPaAeuiglnJM+cSEr03YuwZSLrJvF0ObV36Rrca5esw3pnRrrrwmx3jbDbaTecytIaYwObdZmLBhnSihD40y4D77ZQoTM9zDpemrq7FpVg88pbLQB0gLT/x108cYWXEp4/dC+TQcWxM3DuzHGSP7vR4kUmosbrX3xYZfEhB3cDFeTNkI/zXH0eCmle3QqaM9pLgonK/c4iOjtKQUime6wcPx/lyrbNcJHe0lxEWdr9rrJZeipFSBZ7p5oDHVFxyegzcW52LMF6swzrNN5RUIwgItW7WEqjgW56MNLEEZMpRo16kj7KU4RFUNFnJpCUoVz6Cbh2P9hUxWSxrKUFQso02XF9BOCShVyjomZYISoLBvB0fbBARu/aXac1QlJAX9jBj7VmipKkbs+WgDPxKyDEBhj3aOtkgI3Ipfqj2EVUoKws+X7+8XlwfvpwIcnvMGFueOwRerxsGzTZWX6oMpO93nUOvF4xJf7VqZ1lTD7NyQ+FHAvp0jbBMCsbWmWBH082UzNxXWxKKl6THUj0b054HGm+n2SxqtN1P1xuGpDk6wyQrC90fyKk/JuUHYvCexjoSzJsbn2QcYHwCgcseUbbsw0y0Wny7Zg1tE/bQmpSL2Vnv4bvgFCXEHsfjFFGz0X4PjjeqECRqsA1M+Me7rXBP2roHyaXRwskFW0PeocquM3KDN2HPt6fubb8zNV884Gm/7N7sG2skcv+MaQhM2TDQbGffVL1OY8c5DROGI4evCcT0xEiEhEUhMOoMNbzg9wA7K0JXqQEiQDOxdkrAVK46VQm0FoPw8ZbnOy/2SLJcndxVQn2xV+kL/b1muaESGJBMsXzmk1EB8svkCimANl1cX48MxLrC1soZFg+tujuEz/dBVsw/rtyXq786VM3EsNBV9Zr6HflaVlZQjQV99tVERAKtd3SNByNBXPxwz/bpCs289tiXqb8aUM48hNLUPZr7XD1aQIUk6UK52ZZPU91+fPcLa2gq4k4H0vBycORWNzOtJyCpIQeKNAhSnhuFgRAakonxkRJ9D1uAJGN4qCVvnLMahlFKgJBkXYrMhadKQnJmPJsNnwq+rBvvWb4O+OzIyj4Uitc9MvFcxWAK6MtOBL+ck42b5Haxy+gEcuPwC/N4bDGso0capLSzTInH0Qhayr/yMjTtOI1eXg9Qbt3FXORSTx7ni5mYfDBy/El8H7sPOgGlYEG4Hd8fXMWF4KyRtnYPFh1JQihIkX4hFtqRBWnIm8ovsMHTyOLje3AyfgeOx8utA7NsZgGkLwmHnZnD5UJIhGyQaejdVBTv1ItAvqA/aTycicCUpCwUpibhRUIzUsIOIyJBQlJ+B6DOx5f3RwaiZ7YzbyU0FQJIggeVtG9JAjQKPbXzZtDajKYuG2bl5feKnHLuhkzHO9SY2+wzE+JVfI3DfTgRMW4BwOzeoZAmSjpCrfeHUy0mulRwrzI2hCIAsQWZNvZeWloGlpSgpP2ayP0BF4FdLqk3HmyxJ0FGudgWaYLmtZMN4OHUZFibatzChN0MaMq6nhk3GW+0zsevdP2P2vwPxw551+KtvIFS93aEst3WtK+iyPqbzjc6zZ3A50Vh/ZeQeWwGft1cjpFoyVZ3S0iKUGPx0p2g5GAHf/QN/al6C0vJTZrUmpSLwk824UARYu7yKxR+OgYutFaxrGa1mbMOc9hTW0LsuHXk5Z3DqsoVJHaCOucyUT+r2tSXumLB3bI2nJTTHsMlvoX3mLrz759n4d+AP2LPur/ANVKG3e0uz841p3Zqbr0y1bd9gO9Wi+nwj5+O6mTWkBqWlKGMpSqsCw8TcZmocynJb1P61VZZlyA3tV0Mw3DT9WKJL4q9fLeef1Va0ULRg91FT9Tcbvvsup74zjM+3bMU39+SSvMeEQ0vp3VZJpfNIrvkptkY1BfEHuGyYE5UqN45ee5AxydH8YdUIdlCq6DYqgD9eusGowKV81UlJlesoBgRdZvTBZRzWTkmVy0iu+TmRJacXs3fH7nzF929cvnIhZ8wI4C+ZUiPqvsYSlvHmgSUc4enBgWOn8y9TJtDvszBmGd4IwALGH1jGYU5KqtxGc+3BGCZH/8BVIzpQqXLjqIAfeelGFAOXvkonpYquowIYdK2ELLvJA0tG0NNjIMdO/wunTPDjZ2FZlEhqL+/j4iFtqGyi5th1hxmXeJLbZvamg8KWHtO+4qk0ibpr2/m2ugWfUo/kusi7lNL2c2aPtmzWoiP7T9vIkG986ezgxuGfRFBLiZqzX9K3pzNbOLjQ6/X3uXxqT7r2Gse/b49ghkSW3TzAJSM86TFwLKf/ZQon+H3GsCyJlHJ5Ye8ivuKopNLJm0v2RvF2LRuU8eKH3Wjp2JNvTfsr53zwV74zyod/P5hc9fD+O6e4emgH2ts70WPMJww5PJ+enQZw0vLdPHdbIgvjudt/MN1bWNHSvgP7zNjB2Ir7IzRn+aVvTzq3cKCL1+t8f/lU9nTtxXF/386IDIlkIeN3+3OwewtaWdqzQ58Z3FFRuIKCeB5YNoxOShXdRq/lwZhkRv+wiiM6KKlyG8WAHy/xRlQgl77qRKXKlaMCgnithA/YT/lM2z+TPdo2Y4uO/TltYwi/8XWmg9twfhwcxr2LXqGjUkkn7yXcG3WbtcxMGrfTvQQeWurNtkolnUeu4U+x1d+M1BiN5jH+MY0v1kdTDbSz0fipg8L43fQf7M4WVpa079CHM3bEspBaXt63mEPaKNlEPZbrDscx8eQ2zuztQIWtB6d9dYppBtWZHMP1WB5cNoztlCq6jFzDnxMLmPTLvzmz71NUKNpw0PzN/E/ELeqM9kdi7oW9XPSKI5VKJ3ov2cuoysA3Em/ay9y3eAjbKJtQPXYdD8cl8uS2meztoKCtxzR+dSqt1rxFo+3TqN5qUtbAcekpjN9D/8Fqtm7WnE5e47juZDYlannpPws4qI2STdQ+/PRQLBNObOWsPg5U2nny3W2RTE81Ps9mG+2vjte+HMan2w7npiSDu0Z1KTz97T844Xk7Or++jFuPJVb2UY/E7KA5HL+m6qYtk1orOc3FvTuy+yu+/NvylVw4YwYDfsk0mEsKDGI7qh7a0/Ha9repbvEU1SPXUe+6unUg5V4wOpcZ84kxX5te1wwpZPwefw5Wt2az5k70GreOJ7MrWjYx39RDtybLm2274XaqpNZ8ozW6hnwSUdMiZUm/8N8z+/IphYJtBs3n5v9E8JY+MOqe20jj49Be4n8WDNLbyOdTHopN4Imts9jHQUk7z3e5LTK93v1qKBasfqlLIHhs0SF6qRd6/fQ6ws+vgketfaQCgUAgEAgEDePB7ZwQCP5HqGtTgUAgEAgEAkFDEYm04AlBh7y8O5Dyc6Gpz/t3BAKBQCAQCMwgtnYIngBKcO3YDvznxE3k61RwcBmItyYPgdvv+2RFgUAgEAgEjzkikRYIBAKBQCAQCBqB2NohEAgEAoFAIBA0ApFICwQCgUAgEAgEjUAk0o2lOA0xV7KevCdA1Bp3IZIvXkJqtdfBPnLId5EUcw3ax9FZhcm4eCm12mthBQKBQCAQPCxEIt1QZC0u7v4AQ9zdMXD1Kf0bhJ4EjIxbvrkFE3v1xvSdmY/glwoJqb+ug28PVzzvswUJpt7M9D+JjJtbJqJX7+nYmfnoWV8gEAgEgscdkUg3FIUDPMbNwRvqaq/+fRIwMm6Fywx8ExGOrya1fQTFpET7wf6YPuCpaq+BfvSRc84j6rrBe+zrRAGXGd8gIvwrTGr76FlfIBAIBILHHbH6NgaFPZrZWRgeffypc9x2cPbohvbWBocfGZRwcLCHYa8fXQpx5vOl2HG1npfP7Zzh0a09HlnzCwQCgUDwGPPEJdJF6TE4HXoC55Pv1tiKUJgSg8RcGSjNQlx4OOKzTSUyCljUkZnpcq/iTMgvCD2XBG09LigWpl3GqRMRuJJdgtKsJNy8KyMj+hiCg4IQfDIBWhmQ0s/jSFAQgo5E4kZR9dJFSI85jdAT55F819TP+kVIiUlAjlSM9EtnkZBX1TFjtoAuF1fPhOCX0HNIqjGQusddnHYZ8eVbC/Kvntb3t8ZfME4lavUfNlq3EUqzkRARitAz16Cp8XEdcq+eQcgvoTiXpEWtmnR5uHY2DCcupuKe4TlzZWtQhNTLV5AlA5I2CVHhF5FSWH6qNAvx4adwKb32DmVJk4SokycQmZBda/uPUa3JOYjcMAnvrDuLm9FHERwSixwZZvpbgvTL8TDc2WHUtwKBQCAQCB4YT04iLWcgeNV0zN0chsvnvsfcvmr0X3IcOVlnsXP2ILirhyFg71bM8H4N4ya8hu5dR2LzNdMpVhUSknZPQs/Rn+PS7UyEB3hD3XcFImokvtUoisMOv9cwYe0RxCWcwGdjPeD63ChsSZDRssMzyPpmBt6YvhXxOkDZsj3aJG7A+BEfIDBd3x85Ixirps/F5rDLOPf9XPRV98eS47kGCZOM7MhtmDXIHeqhy7Fp7Zvo27sXekzehVwjtsiVASlpNyb1HI3PL91GZngAvNV9scLIQGTNRez925/g3rE/VpwoBlCKKzvXYPOZNORptdBqbyNq03SMGL0Ih7KVDaobkJETugYTff+B48nZuPyvEVB7+eOnDBmQkrB7Uk+M/vwSbmeGI8Bbjb4rIlBRU1HMFkzwnoat0Wm4dnAx/DdfrUo+zZStQkZe1G7MfUWNTgOWI3DfMowf64spo3uhS8+5CI7ahfeGj8Lkd8egZ5d+WFY5Di0i/+kLn4WBiElJxIG5/fCc90qE5MiQc0xrTdamI9emBZrKMkoKtdDmF0Fnor/aS99jwf/rhI69P8SvFbm8Cd8KBAKBQCB4wPCJQGLW3vEctDCSJeX/T14/gJZNPLj0Yhl11z9lH0t7es36iUklJLX/5fg2Vuz76XXqDKsiSd7h9tet2WLcf3mPJHVX+NHLtvRcEcMykmVnF/EF6+5cerHMsCDJu/x19gv0mH+aheVHSsLn8VmrF7jobBlJHeNX96B153k8re8sS07PY2ebXvz4Nx0pZXHv+EFcGFl+Ukrm+gGWbOKxlLWbk5i8fiAtbbpy1tFsauKOM/hSDjOM2qKYVz56mbaeKxijHwgXvWDN7ksvUl+1wbhJShlfcoiVPd/6vpBkGWMPHWJCeT/uhv+dnk0d2O/jiyymzkzdNZEyvqWPuze/TJZIkmWxn3JAy3actL+Auisf8WVbT67QV8Szi16gdffy8Ree4vwX3Tj5J015TQU8NNWJTZ6dz4gSmi5bC4npXwyhlW1PLgrLoI5kyYUP2b1Jc/ZacJS3ykiWXeSH3a3o5h/CYpKaw+9S3WU2wyoMVHiKc7tY0nHsd8yUaFZrUvoXHGLtxGmHi0ma7+/tzf+PVnZ/5p5CfX9N6VwgEAgEAsGD5Qm5Il2E0P3BSLt6COsCAhAQsBZ77nlj+cqJ8LQBlE2bwk7ZDN29veFqCcBOjU7tFcjX5tXvhkKlGn47T2CPvwtSQ7dh7fZIaOQS3Cuu4zJg/s/YtPsuXv6TJ2zLDymbN0fT+nqiKBT7g9Nw9dA6BAQEIGDtHtzzXo6VEz1hY/hZKGBjYwmFvReG9GsNh+eGwPtFa5wwagsl1H47cWKPP1xSQ7Ft7XZEamSU3Cs2uj1A0awZmlZu91Dh+ddeQ2cVIOcGY8Hkf+DWoE+wfV53WKFhdWuC9iLYygNe5TfRqZ6fh9DcNOwYaQel2g87T+yBv0sqQretxfZIDeSSeyiWgYLgjdiR1BUDBzmU12QNVxdHKMv/Z6psbRRoamcLC0tXvOTVFkoAlmp3OKuA9i/1gZMKgMoFzu0skK/RgMjDwa++Q6p7N3hUbFq2fRk+I9W4fehbBGkbrjVz/bVpagtV5adN61wgEAgEAsGDpb7p2/828l3k5N6DVZeRmL9oERZV/C2cjRGdVYCFRc2b0SyUUFoAlOtKbepCAdW9aGyY7odt6d0wxW8wHBV1l5XSr+NmgQqWTerYbFwP5Ls5yL1nhS4j51eNY9EiLJw9Ap2rMqpqGLRjxhYK1T1Eb5gOv23p6DbFD4MdFXUmeJVYWNTeNy2nIdB/BraWvIUvN09Fx/Istv51S8jNvo1ibR40dX1AocK96A2Y7rcN6d2mwG+wI/TmlpCa8Bu0UEJlTNlGy9aNheHgLBSwqNFrCygU0D8VRMpCyq0iyKWl1Z7rrIKLsxMUpVpo7sgN15q5/lavz4xvBQKBQCAQPFiMpRuPFwp7tHO0RULgVvyiqTosJQXh58umbiqsJwWHMeeNxcgd8wVWjfNEm4qcpY7cyMKhBZrjFqIibxi9yU2pUgKUDYoTlACFfTs42iYgcOsvqBqKhKSgn1GvoZi0hRaH57yBxblj8MWqcfA0NRCj6JC4eTpm/miPv3z9T4x2VACyBtm5Dalbiac7OMEmKwjfH8mrPCrnBmHznkTkH56DNxbnYswXqzDOs03lFVnCAi1btYSqOBbno0sqy+lPypABFBgt+wBQtkOnjvaQ4qJwvnLTtYzSklIonukGD8eGh1uD+mvSt/URh0AgEAgEgobQ8JX9fxI7DJ08Dq43N8Nn4His/DoQ+3YGYNqCcNi5qSBLEnSUq10VJAhClvXJV20kSBLA8vNy/nUkZRUgJfEGCopTEXYwAhlSEfIzonEmtqBGSUWb/4c/D7TBmY/H472NR3D2/K/Ysf1XZFRm1Uq0cWoLy7RIHL2QhewrP2PjjtPI1eUg9cZt3FUOxeRxrri52QcDx6/E14H7sDNgGhaE28GtzouOBHRlqEqjTNjCpRDXk7JQkJKIGwXFSA07iIgMCUX5GYg+E1tr3AAAWYJMQi4/UBT1MaYsOo2OC7djzZAW+oOaIPx0LMNM3TVpPmwy3mqfiV3v/hmz/x2IH/asw199A6Hq7YaC60nIKkhB4o0CFKeG4WBEBqSifGREn0PW4AkY3ioJW+csxqGUUqAkGRdisyFp0pCcqUGm0bJnYOAqAIAky5VJuB7q9VGZyer/LcsSgOYYPtMPXTX7sH5bov5pHXImjoWmos/M99DPCma1prC2hhXuICM9DzlnTiDiSkP6a8K3birIucewwudtrA6plmULBAKBQCBoPIabph9fChm/25+D3VvQytKeHfrM4I7YQlJ7mfsWD2EbZROqx67j4bhEntw2k70dFLT1mMavTqUZ1HOPCYeW0rutkkrnkVzzUywppXH/zB5s26wFO/afxo0h39DX2YFuwz9hhNagOEld+lEue70LWze1p8ugOQwMWkYvm4qbDUneOcXVQzvQ3t6JHmM+Ycjh+fTsNICTlu/mudsSWRjP3f6D6d7Cipb2Hdhnxg7GVty5WInE3At7uegVRyqVTvRespdRt/U37hm1BSWm7Z/JHm2bsUXH/py2MYTf+DrTwW04P4nIrD3ugngeXDaM7ZQquoxcw59jQrnoRWsqHDw5bt4CLliwgAv+NpuT+j/Lt/feNVF3HUYiWRi/h/6D1WzdrDmdvMZx3clsSiSltP2c2aMtm7XoyP7TNjLkG186O7hx+CcR1FKi5uyX9O3pzBYOLvR6/X0un9qTrr3G8e/bI5iWaqpsTQriD3DZMCcqVW4cvfYgY5Kj+cOqEeygVNFtVAB/vHSDUYFL+aqTkirXUQwIusYSlvHmgSUc4enBgWOn8y9TJtDvszBmSayf1nTXuP1tNVs8pebIdZHMNzlWsvDb0WzatOJmQ5rwLam79iWHPd2WwzclVR+mQCAQCASCRmJB/i+98+3xRIpfjZ5e32No2EV89H91XlYWCOqkaO+baOtvg523dmGUeCuLQCAQCAQPlSdka4dA8Hgil+mg6PwCnm9ieEYgEAgEAsHvjUikHwF0t28jX1cA7R1xQ5jAPLq4TzHwmRcwfsMh/HimFG/NmwT3iuf7CQQCgUAgeGiIrR1/MFLaaez69ggSc8vQpIUbBvtMwUAXkRUJTKBLwa9f70Rotj26vjYOf/ZsXfmcbIFAIBAIBA8PkUgLBAKBQCAQCASNQGztEAgEAoFAIBAIGoFIpAUCgUAgEAgEgkYgEmnB7458Nwkx17RGXm7zv0whki9eQmrV+8AFggYiQXM1BjcKDY//gch3kRRzDdqKgC1MxsVLqdVee/8Q+SPbbgzFaYi5ktWwuU7Ox82oU4iIzXz0xmmoBcGjRWP09kQh425SDK79zgJ+MhLpokQc27oCU7z7ok+fvuj/ynCM9vHB6D+Pxvh3F+AfeyORXmpYSHDfSKn4dZ0verg+D58tCdXervh4IN/cgom9emP6zkwxkTUAOfscvvvkfYwa1Bf9R61AqMGLFkuTQrHjo2kYNuB1/PUfu3EqKQWnv/kYfiP6o2/fAfjz7M/xfcRvSDj8JRa/MxR9+w7EiAnvws/PD35+0+H7pjcGDJiMr69Vvi70kURK/hXrJr4E1xenYk/yo9BXCam/roNvD1c877MFCToAkHFzy0T06j0dOzMftspNtF1yEkt6d0b/ecHIftjdqgtZi4u7P8AQd3cMXH1K/1bTSiRc/WIkOr80ETuv15wFpRuB+JvfWhyM+Al/91aj6zu7cONRkEKdWhA8MpjU230iJ2PLmM7oNnYLEh5oxQ8XKfVXrPPtAdfnfbDl9xaw4RtaHl8K+dOkNlQ2f5N775YfupfG8O2z2LdNEzq89B733dQZlBGQJKVsRp27xkZZp+QUP1Bb8dn5ESwxPPc/TwFvXohmyj3D4ya4H1s+VpTx+taRdFSq6DR6J5MMDVL4I6f0nsMTlaIp46VlL7FJk5e47FL5G0BJFv7wDlsp23DST9WcIGUxeM6bXHL60Vdc8a9/pYuVF1fFGRrgj6KEpz5Q0+rZ+YyoMF/BTV6ITmFDZP7AMNJ2yel59Oq1hCcMX0f6oGlIvEop/HyQFVuM+2/N/ko3+M8/vcDJ/73FinfL6o9n8ptR7fjqllySEm8fX8l3/LbxSr0aexjUoYVHlYb4yQxSdhTPXXsQNf3OGNPbfSKlbeRrz43jnscgHyo59QHVVs9y/u8s4CfjijQAQAWH5s1gYaGEsmLU1u3Qy/efCD74dzz722ZM8f0c8Y/E1YBHi8Izn2PpjquNu6KsdICDvYXh0ccEOzh7dEP7BrxR8L5s+VihQoeXPdHp6ZbI/3Emxq85g4Lqp5XN4fC0PZpVzlAWsLOzASyawcGhatpS2trC2lBeijYYumgJRjs++g8FVNo1g90jNQsr4eBgjxomtXOGR7f2aIDMHxx1ti0hJfkZ/O3bFejXvMaJB06D4lVhj2Z2hmIEkB8P5ejd+GK0U82fgEsjcfxUIezsrQEo8NSQD7Fr42Q8+8jItg4tPKI0yE8mKcSZz5dix9X7r+l3x5je7pOiOBmv7diMcc6PjBAbjdLBAQ8j/XikpnAU30Tojk+xfPlabPs1CUWG538n7HrMxfJxz6Dg5D/x+fHqrRYhPeY0Qk+cR/Ldevx+KGcg+lgwgoKCcTJBCxkS0s8fQVBQEI5E3qgaT2EKYhJzIaMUWXHhCI/PbtAEUJR6GVeyZEDSIikqHBdTKjZYliIrPhynLqXX3msnaZAUdRInIhOQbfhzjdH+yMiJ3IBJ76zD2ZvROBocgticcjvocnH1TAh+CT2HJG3tbx+6vGs4G3YCF1PvGZ4CAEiaJESdPIHIhOxaP0sVpcQgIUdCcfolnE3IQ+3aa1OYEoPEXBkozUJceDjis2tb1FSbsvY6zoSdRHRKPnLTM1DfLavFaZcRX/1n58bYEkBRegxOh57A+eS7NbaJGLVFUTpiTofixPlk1JCmrMX1M2E4GZ2C/Nx0ZFQORIfcq2cQ8ksoziVp62XTSmrVKSMj+hiCg4IQfDIBWhmQ0s/jSFAQgo5E4ka9A9cCT436FF++5YCo1e9g1v6MB7BFRkZW9EWktuwOD9fGLASFSIlJhF5KcQgPj0dtKUnQJEXh5IlIJNQKpiKkXr4CfXgmISr8IqrCMwvx4adwKb1adFpYlCcqhC7nCiIj45BpGLxFKYhJyIFUnI5LZxOQV+E8YxpoDLo8XDsbhhMXU1E7YouRdjkeVTIvQkpMAnKkYqRfOouEyg4Z1zEAlGYnICI0FGeuaWrrrzQbCRGhCD1zDZoaJw3b1vPUy33QNuVcHfavj//qg6l4NbYuKGBR16Jt1R0DntcgqpqfSlLO4sjRSFzPl3A7/jiCjoTj2t2KAqb0VZ/xmSpfD0xq4T51Z9TPD3+NqqVHOQeRGybhnXVncTP6KIJDYlHpclN9M4KcG4fQ4CAEBQUh6MgZ3CwCgCLcPHMEQUHBCI3LNSxilLrjyojeTGBsnZQzonEsOAhBwSdx6//88JeX7uD8kSAEBR1BZLUJvVG5h1G9GJ9HTK3V5tEh79pZhJ24iLrTD2Px23genUS68Cw+8vbEkCl/w4oVCzF1qBeGrgyveZXqd8MOfYf2RnNm4FRILABAzgjGqulzsTnsMs59Pxd91f2x5HhurcWhBoqW6PBMFr6Z8Qamb42HDkq0bN8GiRvGY8QHgUgvy8HZnbMxyF2NYQF7sXWGN14bNwGvde+KkZuv1V5cDJDzorB77itQdxqA5YH7sGz8WPhOGY1eXXpibnAUdr03HKMmv4sxPbug37KIysRdG/lP+PosRGBMChIPzEW/57yxMiQHsmymP7IW6bk2aNFUhlxSCK02H0U6QErajUk9R+PzS7eRGR4Ab3VfrIioaK0IMVsmwHvaVkSnXcPBxf7YfLX6yLSI/KcvfBYGIiYlEQfm9sNz3isRkiNDzo7EtlmD4K4eiuWb1uLNvr3Rq8dk7DIx38g5Z7Fz9iC4q4chYO9WzPB+DeMmvIbuXUdic+UeWeNtAkDp5Q3w9f8WqbpixG8bj55vfo2btRanmsiai9j7tz/BvWN/rDhRDDTSlpAzELxqOuZuDsPlc99jbl81+i85jpxMY7aQkRG8CtPnbkbY5XP4fm5fqPsvwfFcGSi9jA2+/vg2VYfi+G0Y3/NNfH1TB0hJ2D2pJ0Z/fgm3M8MR4K1G3xVV+jBJnXXKaNnhGWR9MwNvTN+KeB2gbNkebRI3YPyIDxCYbk7J1VC0w1ubv8Uij2zsnD4RG2JLDD/RIKT8S9j5r31m/VcbGTlnd2L2IHeohwVg79YZ8H5tHCa81h1dR25GlZQi8U9fHywMjEFK4gHM7fccvFeGIEeWkRe1G3NfUaPTgOUI3LcM48f6YsroXujScy6Co3bhveGjMPndMejZpR+WVcYLABBZP/ujt0dvDOnbFS5d3sDnUQWAnI3IbbMwyF2Nocs3Ye2bfdG7Vw9M3pVjXAONoChmCyZ4T8PW6DRcO7gY/puvls9FMjQX9+Jvf3JHx/4rcKJYRnbkNswa5A710OXYtPZN9O3dCz0m70KuER3nyvoEJXTNRPj+4ziSsy/jXyPU8PL/CRmyvo2c0DWY6PsPHE/OxuV/jYDayx8/ZegM2i7vrAn718t/9cVIvDZsXTAeqywtRL62EGUgygrzodXeQbEk3//4jJY36JoRjGsBJsdjHmN+1pd9qGuUET2m5aUj16YFmsoySgq10OYXQWeqbzUHWAuFTVMUHvsQbw0fh40326C1NQBY4ynlaaxefAiFDk0Ni9TGVFw1AHPrpKJlBzyT9Q1mvDEdW/UTOtq3ScSG8SPwQWA6yhqVexjTi874PGJmrTZLUQy2TPDGtK3RSLt2EIv9N6N6+tGw+G0Ahns9/hgkZn49nM0sQKDqz8LuT/z3rRq7yu6DEobN7EiVgw8DCw3PkSUnZrOTSkHHqYdIKYt7xw/iwsjyfTVSMtcPsGQTj6W8WLU9s2508Vzdw5qd550u3xNcwtPzOtOm18f8TUdSd52f9rGkvdcs/pRUQlLL/45vQ6u+n/J6PbYkSelfcIiVLXsuCmOGjmTJBX7YvQmb91rAo7fKSJbx4ofdaeXmz5BikprDfFfdhbPDKnZRFfLU3C60dBzL7zIl8/2R0vnFEGs6TTvMYpKkjlc+epm2nisYU0ay7CwXvWDN7ksvsoxk4an5fNFtMn/SlDdXcIhTnZpU7pHWHH6X6i6zWdWdU5zbxZKOY79jpkRKyes50NKGXWcdZbYmjseDLzHXjAR01z9lH0t7es36ifoh/Jfj21ix76fXqTPbZgnD573A7gsi9fvMpEzuWf0vxpnzM0kp40sOsbLnW9+XC6rBtpSYtXc8By2MLNeKxOT1A2jZxINLL5bVaYucjL0cP2ghq6S5ngMsm9Bj6UUWhs/jC90XMFI/EGbuWc1/xZVRd+UjvmzryRV6h/Hsohdo3b0eWiZZYqROUsf41T1o3XkeK7Yil5yex842vfjxb/UQMsmy2NUc5X+MxSR1STv55jMq2nSdzWO5Elkcwg9GLavWRx2vfdKHTSwHcH1ylSCKg2fwGaU1Ow56i2PHjuVbI16m83Mz9dpvMDpe/7QPLe29OOunJOqlNJ5trPry0+s6khoeflfNLrPDKvckFp6ayy6Wjhz7XSYlSkz/YgitbHtyUVgG9eH5Ibs3ac5eC45SH54X+WF3K7r5h7CYZNnZRXzB0okjNpxlro4siPmKY1ya0MprJS+Xlc89Ay1p03UWj2ZrGHc8mBcT9hjVQD1cWpPCU5z/ohsnVwUsD011YpPKfbESM74cQiv7t6iXucTk9QNpadOVs45mUxN3nMGXcphhVMclzPjWh+7eX1LvtjLGfjqALdtN4v4CUsr4lj7u3vyy3KdlsZ9yQMt2nLS/oI62zdnfnP8aiGG8ml0X7nD769aVe1alLOOxWkaShd/wDWsH+lQuSPc7PnPlzWBGC2bHYwKTfn6oa5RkWo/pX3CItROnHS6fQMz1zRyFYZyttmKX+eGVc37mzgkcuynFvD/MrA+GejOHuXVSF7+aPaw7c17VhM55nW3Y6+PfqDdzw3IP03qpax7JZa7JtbpyKEYo5Kn5L9Jt8k+sSj+m0qlJ+R5ps/HbeB6RK9IyMpJTUWzwjkWWpOLmrQZfWmoULChAERVo5tACKArF/uA0XD20DgEBAQhYuwf3vJdj5URP2BgWbCjKpmhqp0Sz7t7wdrUEYAd1p/ZQ5GuRV493TCqa2sHWwhKuL3mhrRKApRruziqg/Uvo46QCoIKLcztY5GugIZB38Ct8l+qObh4Vuwxt8bLPSKhvH8K3QdpG9EcJtd9OnNjjD5fUUGxbux2RGhkl94ohowDBG3cgqetADHIo/7i1K1wq96rm4eBX3yHVvRuquvMyfEaqcfvQtwjSAgobG1gq7OE1pB9aOzyHId4voqUZlSqbNoWdshm6e3tDPwQ1OrVXIF+bB5ptUwUntTOSPxuB/pM+wr64JvBZ8j6eUxk0UgeKZs3QtPpPaw22ZRFC9wcj7eohrAsIQEDAWuy5543lKyfC06ZuW1if2I/gtKs4tC4AAQEBWLvnHryXr8RETxuonNRwTv4MI/pPwkf74tDEZwnef04FpdoPO0/sgb9LKkK3rcX2SA3kknsorsfXcGN1PmiUrhPx1Z55eO7GF/CdthNJDbmCaGGPvrN3Yu/evfj+pzDs+YsajeuhEk2b2kHZrDu8vV2hl1IntFfkQ5tHIO8gvvouFe7dPCr37Nq+7IOR6ts49G0QtFCgqZ0tLCxd8ZJXW+jD0x368OwDfXi6wLmdBfI1GlRKQumI/xvyEloqAbsXpmDdB31hEXMCJ2/LgMIGNpYK2HsNQb/WDnhuiDfcL/1kVAMNpSB4I3YkdcXAqoCFq4tjtVfOK9CsWdNq+2QVsLGxhMLeC0P6tYbDc0Pg/aI1ThjVsQZBe4Nh5eGFtgoAUOH5eaHITduBkXaAJmgvgq084KU/CdXz8xCam4YdI+1qt23W/mb8d780cF0oCjUeq3Vyv+MzW9405rTQ4PFUw5SfH+4aZVqPhpjtmzls+8D//b5I2/kZ9mXJgJSMwJ+bYNSY9vXYDmB6fWgoptdJ8zQ09zCtl7rmEeBnk2u1QYcMKQjGxh1J6DpwEKrSDxdUph8NjN+GYN6XDwUV3Ht4oo3BlkZFK0+83Nmy5sHfBR2uRV1ENlvAq1dXyHdzkHvPCl1GzseiRYsq/xbOHoHOjVuhq2FhsK/JAkqlBUC5XmKu2lNZeQAKC/0l/MojCgVAApCQlXILRXIpSqttXFK5OMNJUQqt5g7kRvRHobqH6A3T4bctHd2m+GGwo0L/WSkVCb9pAaWqbmFJWUi5VQS5tLTaPioVXJydoCjVQnNHn9k1cNtXbZtYKKEfAuvRJtBh6i4c2+SDZmFr8NZLndF71n6k1CeRs6htO8P/m7SlfBc5ufdg1WUk5lfT2aKFszGiXGg1bSHjbk4u7ll1wcj51T6/aCFmj+gMyw5TsevYJvg0C8Oat15C596zsD9FAhQq3IvegOl+25DebQr8BjtCUWeHaqMwVufvgEP/Vfhu/WvgwVl4e/WF+m09qYUVPMe8iReaGB6vHxYGmw4tlEpYgNBLKQW3imSU1gwmODspUKrV4I5cuzwsFND/0FZ5AJXhWScKtHZzhYOFBF1Z+aEaVZrWQMOmJwmpCb9BCyVUdQasHgvD+DKMUFM6ds9H9u1iaPOqfXGoREJu9m0Ua/OgqX0SMGi7Mfav7r/7pWHrQsP9dL/jq09545jTQsPHU4UpPz/sNSrXhB4NqU/fzKGE28Q5GGP9Mz7bFIPiuN0IeXoshrc0/FwdmIqr2oIzj2EcV18n64NheZO5R330YjCPmF2rTVtbSk2APv2oU8ANjN+GUXeLfwBNX12NTbN64CmVhT5QWnjir5s+xsiKrxa/I3LuEfxzxyUoX5iK919rBoV9OzjaJiBw6y+oesSthKSgn3HZ7AVyJVTKOsRJmt0D/eBRol2njrCX4hB1viotkUtLUKp4Bt08HBshgAIcnvMGFueOwRerxsGzTYUCCVi0RKuWKhTHnke0wVZXyjKgbIdOHe0hxUWhqjsySktKoXimGzwcG94bs5htk0iNvYX2vhvwS0IcDi5+ESkb/bHm+P3t1a0XCnu0c7RFQuBW/FLtWcpSUhB+rlNoCti3c4RtQiC21iyAoJ8voyQ1Frfa+2LDLwmIO7gYL6ZshP+a48g9PAdvLM7FmC9WYZxnm8pFrz7Tp2SkzhIASr3QDeoh2Gihq+A+ZRt2zXRD7KdLsOdWfXpYG+unn0a1B3s8MJTtOqGjvYS4qPNVSb5cipJSBZ7p5oEHJd+inNu416E7Xnq6rgpNa6Au1RjHAi1btYSqOBbnawdsPZKEckzpOO4pdHCyQVbQ9ziSV3FGRm7QZuxJBJ7u4ASbrCB8X3UScm4QNu9JrDVfPiz7G6Nh60LD/XS/47u/8ua00PDxVKE04edrePphrlHKp03osZbiHsz62dwbs999EVe++hgrv7yA598ZBFvDz9SFqbiqLbj7R6mCso4vnWzUhN4IvZhdq01b26JlK7RUFSP2fDRqKpiQ5YbGb8Mw3bOHicIRw9eF43piJEJCIpCYdAYb3jB4XNB9QZSW1r7/U5cRgjVjp2FX8Sv4aMeH6GUNwG4oJo9zxc3NPhg4fiW+DtyHnQHTsCDcDm7mvrko28CprSXSIo/iQlY2rvy8ETtO50KXk4obt++iWJYg6Qi5WgJC6hNNuT4rlyRDLhdGBQTAape4SAKyDAlA8+Ez4ddVg33rtyGxFABkZB4LRWqfmXivnxVgrj8Ka1hbAXcy0pGXcwanojNxPSkLBSmJuFFQjNSwg4jIkFCUn4Hoc1l4fcJwtEraijmLDyGlFChJvoDYbAmatGRk5jfB8Jl+6KrZh/XbEvV348qZOBaaij4z30M/q4rx6FDWAGHLkgQd5WpfXgiCkGUZMpqbaVNCauAn2HyhCLB2wauLP8QYF1tY1XqmWh3IEmRW80VDbXnZAkMnj4Przc3wGTgeK78OxL6dAZi2IBx25UIztIXd0MkY53oTm30GYvzKrxG4bycCpi1AuJ0bLFID8cnmCyiCNVxeXYwPx7jA1soSd64nIasgBYk3ClCcGoaDERmQivKREX0GsWbu5pXqrNMaFlCijVNbWKZF4uiFLGRf+Rkbd5xGri4HqTdu426tW7froLQURSUlNRNxRUsMDvgO//hTc5SU1pzRS0pKAOpQVlZN66VlKGMZyiqu3hpQdO5fmDT8baw8kmF4qg5kSJIOlKstJnoHQpZloPlwzPTrCs2+9dimDybImccQmtoHM9/rBysAkiwbJKHU67Gyy/p/y3K1xYlFyNeWT/3FMdi6+zr+34ez0KvixzgCumoiMKUBVdE5/GvScLy98kj5zXymUKD16xMwvFUSts5ZjEP6gMWF2GxImjQkZ+ajCIAsyaDhmHRl1RZDOxM6fgrDJr+F9pm78O6fZ+PfgT9gz7q/wjdQhd7uSjQfNhlvtc/Ernf/jNn/DsQPe9bhr76BUPV2h9KwbbP2N+M/FOHcvyZh+NsrccS8cWrH6/U+ZtYFCZJUHu/m/AS9/stYitKS8r7c7/jMljeFeS1YmBuPCUz5ueXDXKPOpJrUo8LaGla4g4z0POScOYXkwWb6Vi9UeG76bAwv+w/+GdcL73ias1YFpuJKVUtv5jC9TgLKNk5oa5mGyKMXkJV9BT9v3IHTuTrkpN7A7bvFDc49zOq/1jxibq2u/GCdKFq/jgnDWyFp6xwsPpSCUpQg+UIssiUN0pIzkW9xH3mdOQw3TT+WFCbw+LYVHOGsokUTR3qOeJuTp02lr89wDug9iD7zt/BUusFu88J47vYfTPcWVrS078A+M3Ywto6bFOvizqnVHNrBnvZOHhzzSQgPz/dkpwGTuHx3CE/8ZzGHtFGyiXos1x2OY+LJbZzZ24EKWw9O++oU00xtqC+I54Flw+ikVNFt9FoejElm9A+rOKKDkiq3UQz48RJvRAVy6atOVKpcOSogiNdKyLKbB7hkhCc9Bo7l9L9M4QS/zxiWJZHU8vI+c/3R8dr2t6lu8RTVI9cx8q7EtP0z2aNtM7bo2J/TNobwG19nOrgN5ycRWlLS8OyXvuzp3IIOLl58/f3lnNrTlb3G/Z3bIzJIlvHmgSUc4enBgWOn8y9TJtDvszBmSaSUe4F7F71CR6WSTt5LuDfqtvkbMrSXuW/xELZRNqF67DoejkvkyW0z2dtBQVuPafzqVJrJNskSnl7cmx27v0Lfvy3nyoUzOCPgF/M3NhTE8+CyYWynVNFl5Br+nJjVCFuSZCHjd/tzsHsLWlnas0OfGdwRW2jSFoXxu+k/2J0trCxp36EPZ+yIZSHJktOL2btjd77i+zcuX7mQM2YE8JdMiVLafs7s0ZbNWnRk/2kbGfKNL50d3Dj8kwiae5+FsTpJkndOcfXQDrS3d6LHmE8Ycng+PTsN4KTlu3nutikD6phy+lv+Y8LztHN+ncu2HmOiQWxJ2UGcM36N/iYQ3S2G7/2Mk7vZ0ULRjB6T1nLX6au8cnQrl77Wnkoo2W7wXH5xIMZgPBLTto9iW4dWbNNnZY0zdaG9vI+Lh7ShsomaY9cdZlziSW6b2ZsOClt6TPuKp9IksuwmDywZQU+PgRw7/S+cMsGPn4VlUSJZEH+Ay4Y5Ualy4+i1BxmTHM0fVo1gB6WKbqMC+OOlG4wKXMpXnZRUuY5iQNA1lhT+xgOr3+GA/+vPN3z/ypnT3+Oqg9fLb3zN5YW9i/iKo5JKJ28u2RvFCrMa04CUtp2j2jqwVZs+XBlTnztoJGrOfknfns5s4eBCr9ff5/KpPenaaxz/vj2C12MPctmwdlSqXDhyzUGeidzLRa84Uql0oveSvYyq9HPdOq48t8efg9Wt2ay5E73GrePJ7Cp9FMbvof9gNVs3a04nr3FcdzK73J7V2/6ZicU0aX+z/ktN5fZRbenQqg37rIypbN84dcSr0XXhHhMOLaV3WyWVziO55qdY0oSfypJ+4b9n9uVTCgXbDJrPzf+J4C3dfY7PjD7NY1oLGZLx8dQHY34mH/IaZUqPumvc/raaLZ5Sc+S6SN412beGUMyw2Z58fUtaPX1RgbG4qltvRqnXOnmHp1YPZQd7ezp5jOEnIYc537MTB0xazt0nwhuVe9StF4m5F4zNI6bWavNImrP80rcnnVs40MXrdb6/fCp7uvbiuL9vZ4RewEbi9/6wYPWvEwKBQPC4UXoKi987j4++nmV45jGlFKcWv4fz0zZjlltjnqX9eFN6ajHeOz8NX89yMzwlEPw+yCnY5LsGrT/fjNEtDE8K/td5cDsnBAKB4FFDzkX4lkN46p2JhmceU2Tkhm/BoafewUSRRNdCzg3HlkNP4Z2JIokW/P5IBXnQFMsoCN+IY47v4DWRRD+WiCvSAoHgMUWG5lII4pr3QV+XP+QF1w8dWXMJIXHN0aevyx/zSu9HGVmDSyFxaN6nL54QOQj+SHSXsbLn/2HV1eZ42n0Uvjy8EW+UP/5P8HghEmmBQCAQCASCB4oOyUc2YU9sK/xp4lvwai2S6McVkUgLBAKBQCAQCASNQHxFEggEAoFAIBAIGoFIpAUCgUAgEAgEgkbwRCfS8t0kxFzT1uth5g+SwuSLuJRanzdWNIzfq96HSyGSLycg52E75ZFAxt2kGFzTPqjBP+j6GscfFWf1Qr6LpJhrqJ+JipEWcwVZ9fqsQCAQCJ4EnsxEWkrFr+t80cP1efhsSaj7dZW/F/JNbJnYC72n70Tmg1yQf696HxoysiO3wn+AOzr/6RNE1n4J5WONlPor1vn2gOvzPtiScP+KfND1NYo/Ms7MIiH113Xw7eGK5322wLSJZGgv7sYHQ9zhPnA1Tj1h2hQIBAKBcZ7MRFrZHoP9p2PAU6z5euKHgcIFM76JQPhXk1D5JBw5B+ejrqMxb7SvpK56/6dQoE1PX8we3tHwxP8WjfSlsv1g+E8fgKce0L2/D7q+RvFHxplZlGg/2B/TBzxV7fXdxlDAwWMc5ryhrsdnBQKBQPAk8T+Zcj0QlA5wsLcwPPpQsHP2QLf2VQ8yLTzzOZbuuHrfV+wM6/3fQ4lmzezwx3jlwXA/vlQ6OOBBSvJB19co/sA4M48SDg729dSbAvb/49oUCAQCwYPniUukdXnXcDbsBC6m3jM8BQCQNEmIOnkCkQnZMPwFtyglBgk5EorTL+FsQp7+qmNRKi5fyYIMCdqkKIRfTEFh+edLs+IRfuoS0g23LRen4XJ8JmTIyIncgEnvrMPZm9E4GhyC2MrNwRI0SVE4eSISCdm1eoKUmATkSMVIv3QWCXnl1z8r662OqXpkaK+fQdjJaKTk5yI9o6LndVOYdhmnTkTgSnYJSrOScPOujIzoYwgOCkLwyQRoZUBKP48jQUEIOhKJG0XVSxchPeY0Qk+cR/Jd43tPLCyqUpXSzFicDo9HtkFWqsu9ijMhvyD0XBK0Ji/9FiH1sn5Pq6RNQlT4RaRUOQfx4adwqZZzAEgaJEWdxInIBNQyWWEKYhJzIaMUWXHhCI/PLk+ajfvSdH91yLt2FmEnLqJuSZryX12Yq69+ftBTiuyECISGnsE1jUHHdbm4eiYEv4SeQ1LtQZmOMzNlq1OUehlX9A5EUlQ4LlY5EFnx4Th1KR21PGjKfwCgy8O1s2E4cTEVdfQOKEpHzOlQnDifjOomUlTTZnVMzRkCgUAgeLx5ghLpIsRsmQDvaVsRnXYNBxf7Y/PV6ou4FpH/9IXPwkDEpCTiwNx+eM57JUJyZMjZkdg2axDc1UOxfNNavNm3N3r933is3DgXr6g7YcDyQOxbNh5jfadgdK8u6Dk3GFG73sPwUZPx7pie6NJvGSKK9G/Wurj3b/iTe0f0X3ECxbIW6bk2aNFUhlxSCK02H0U6ANpI/NPXBwsDY5CSeABz+z0H75UhyJFlZEduw6xB7lAPXY5Na99E39690MN3E0Kq11s5JGP1AEApLm/whf+3qdAVx2Pb+J548+ubdV9JLYrDDr/XMGHtEcQlnMBnYz3g+twobEmQ0bLDM8j6ZgbemL4V8TpA2bI92iRuwPgRHyAwXW9fOSMYq6bPxeawyzj3/Vz0VffHkuO5Jm4+K8WN7+bgrfF+mPGGB7qO+grXJQCQkLR7EnqO/hyXbmciPMAb6r4r9LatgYy8qN2Y+4oanQYsR+C+ZRg/1hdTRvdCl55zERy1C+8NH4XJ745Bzy79sKxaBdrIf8LXZyECY1KQeGAu+j3njZUhOZDlHJzdORuD3NUYFrAXW2d447VxE/Ba964YufkapDp9aaa/RTHYMsEb07ZGI+3aQSz234yakjTlvzowU19D/CDnhGLNRF/843gysi//CyPUXvD/KQMyAClpNyb1HI3PL91GZngAvNV9saJqUCbjzHTZKuS8KOye+wrUnQZgeeA+LBs/Fr5TRqNXl56YGxyFXe8Nx6jJ72JMzy7otywCFTUY9V/5+aKYLZjgPQ1bo9Nw7eBi+G++Wm0bjoyM4FWYPnczwi6fw/dz+0LdfwmO59ZlIZicMwQCgUDwhMAnhMJT8/mi22T+pCk/UHCIU52a8Nn5ESwhqTn8LtVdZjPsXmUBzu1iScex3zFTIqXk9RxoacOus44yWxPH48GXmFuWzi+GWNG25yKGZehIlvDCh93ZpHkvLjh6i2Ukyy5+yO5WbvQPKdbXK2XwyyFWtH/rexaSpJTOL4ZY02naYeo/oeHhd9XsMjuMVV2Zyy6Wjhz7XSYlSkxeP5CWNl0562g2NXHHGXwpl5JhvebqKQnnvBe6c0Gk/qyUuYer/xXHsvLPVnGXv85+gR7zT5fXS5aEz+OzVi9w0dkykjrGr+5B687zeLqk/Pzpeexs04sf/6YjpSzuHT+ICyPLT0rJXD/Akk08lvJi7caYvcmb1s16cUlYNiWSd3+cREfrAfzspkTqrvCjl23puSJGb9uzi/iCdXcurasiSkz/YgitbHtyUVgGdSRLLnzI7k2as9eCo7yldw4/7G5FN/8Qve01h/muugtnV4mAp+Z2oaXjWH6XKZG66/y0jyXtvWbxp6QSklr+d3wbWvX9lNd1dfjSZH8LeWr+i3Sb/BOrJDmVTk2e5fyIEvP+Kz9WhZn6GuIHKYPf+rjT+8tkfTtlsfx0QEu2m7SfBdTxykcv09ZzBWP0g+KiF6zZfelFlpmNM9NlDZHSv+AQK1v2XBRGfXhd4Ifdm7B5rwU8qncgL37YnVZu/gwprof/Ck9x/otunFzVOR6a6sQmz86n3kR7OX7QQlaZaD0HWDahR3n/7mx/ndYtxvG/5dWbmzMEAoFA8PjzhFyRLkDwxh1I6joQgxzKD1m7wsVRWf6fPBz86jukuneDR8UWY9uX4TNSjduHvkWQFlDY2MBSYQ+vIf3Q2uE5DPF+ES1VTWFnawFL15fg1VYJwBJqd2eo0B4v9XGCCoDKxRntLPKh0ZTfpaRohmZN6/6JGACQdxBffZcK924eqOqKD0aqb+PQt0HQQgEbG0so7L0wpF9rODw3BN4vtoTCsF5z9aicoHZOxmcj+mPSR/sQ18QHS95/DqqqGvTk/4xNu+/i5T95wrb8kLJ5czStr3KKQrE/OA1XD61DQEAAAtbuwT3v5Vg50RM2hp+twPZZvNyjNRQArDt0QBtoodHIgFINv50nsMffBamh27B2eyQ0cgnuFdd1BVCBpna2sLB0xUtebaEEYKl2h7MKaP9SHzjpnQPndhbI12hAAHkHv8J3qe7oViUCvOwzEurbh/BtkBZQNkVTOyWadfeGt6slADuoO7WHIl+LvLpuQjPV34JgbNyRhK4DB6FKki6okqQZ/5Ufq8RcfQ3xgyYIe4Ot4OHVVv+Tlep5zAvNRdqOkbCDEmq/nTixxx8uqaHYtnY7IjUySu4VQzYbZ6bK1kbR1A62FpZwfckL+vBSw13vQPTROxAuzu1gka+Bhub9VxC8ETuSumJgVefg6uKIKhPtR3DaVRxaF4CAgACs3XMP3stXYqJnLQvVa84QCAQCweNPfdOh/22kVCT8pgWUqroHLGUh5VYR5NLSavstVXBxdoKiVAvNHf0yXzv9tYDhtkkLhQVqPKLAQgEFqj+1wKLGPmBDpKwU3CqSUVpabeenygXOTgqUajXQd6Wu8jXrNVsPOmDqrmPY5NMMYWvewkude2PW/pRaT5uQ0q/jZoEKlk3qatM88t0c5N6zQpeR87Fo0aLKv4WzR6Bzray9DpQKKCFBVwYACqjuRWPDdD9sS++GKX6D4aioK4PVU8vOFgpY1HQOFAqUP4lBQlbKLRTJpahpMmc4KUqh1dyBXMvfFlAqLQDKRp5KYby/UmoC9JKsU5Hm/WeQeZqrryF+kHKzcbtYi7yKL38GKFT3EL1hOvy2paPbFD8MdlTox28uzkyVrQsLCwOlW6B2eFU40Jz/NEhO+A1aKFG3iWTczcnFPasuGDm/yj6LFi3E7BGda3/BrOecIRAIBILHmzqXlMcOi5Zo1VKF4tjziC6peYqyDCjboVNHe0hxUThfuV1TRmlJKRTPdIOH48Mzk7JdJ3S0lxAXdb5y3yfkUpSUKvBMNw/Utytm62EqYm+1h++GX5AQdxCLX0zBRv81OG5gHwuHFmiOW4iKvFErya5AqVLWkUwSlACFfTs42iYgcOsv0FSek5AU9DMu17kh2wQFhzHnjcXIHfMFVo3zRJuK7MZoJtYQlGjXqSPspThEVYkAcmkJShXPoJuHY8ODxUR/LVq2QktVMWLPR6OmyQm9JM34z6Az5upriB+UT3eAk00Wgr4/gryKg3IugjbvQaJUgMNz3sDi3DH4YtU4eNYclOk4g4my9405/7VDq1YtoSqOxfnanYMMBezbOcI2IRBbf6myEKQkBP18ufa9A4/QnCEQCASCP44nY7ZXtMbrE4ajVdJWzFl8CCmlQEnyBcRmS9CkJSMzvwmGz/RDV80+rN+WqL/zXs7EsdBU9Jn5HvpZ6ashdCirsaJKkOWKJKEcAmC1K9AkCBlyZRYqQ5JZVUZhDWsr4E5GOvJyzuBU8mDM9OsKzb712JaofwaAnHkMoal9MPO9ftB3hYCuzGBxN6i3+XDT9UipCPxkMy4UAdYur2Lxh2PgYmsFa4OLuIo2/w9/HmiDMx+Px3sbj+Ds+V+xY/uvyKgcjxJtnNrCMi0SRy9kIfvKz9i44zRydTlIvXEbd5VDMXmcK25u9sHA8SvxdeA+7AyYhgXhdnCrdZlPhqw3qEFqpT8u519HUlYBUhJvoKA4FWEHI5AhFSE/IxpnYgtqlAAAqbyuKu9Qn+BXOQckIJc7p/nwmfDrqsG+9dugN5mMzGOhSO0zE+/1swJkCZKOkKv1j9T7X5Zr+/JExBWj/T2XNRgThrdC0tY5WHwoBaUoQfKFWGRLGqQlZyK/iRn/VQyhHEXr103XZ9EAPzQfhslvtUfmrnfx59n/RuAPe7Dur74IVPWGu0U+ridloSAlETcKipEadhARGRKK8jMQfS7LdJxpMo2XPRNr0AkAkgy5/ItABfrwqlIH9Q6EZNZ/Nmj9+gQMb5WErXMW45C+c7gQmw1Jk4bkzHxYDJ2Mca43sdlnIMav/BqB+3YiYNoChNu5QQVAkiS9nmQAaG52zpBzj2GFz9tYHVItMRcIBALB44XhpunHFknDs1/6sqdzCzq4ePH195dzak9X9hr3d26PyCBZxpsHlnCEpwcHjp3Ov0yZQL/PwpglkVLuBe5d9AodlUo6eS/h3qjblFjA+APLOMxJSZXbaK49GMPk6B+4akQHKlVuHBXwIy/diGLg0lfppFTRdVQAg67lMf7gMg5rp6TKZSTX/JxIUsdr29+musVTVI9cx8i7JMtu8sCSEfT0GMix0//CKRP8+FlYFiVKzL2wl4tecaRS6UTvJXsZdVsiWVBHvabqIVlymot7d2T3V3z5t+UruXDGDAb8UtdNbKQu/SiXvd6FrZva02XQHAYGLaOXTcXNhiTvnOLqoR1ob+9EjzGfMOTwfHp2GsBJy3fz3G2JLIznbv/BdG9hRUv7DuwzYwdjK+5crIb20n+4YFAbKpuo6fPpIcYmnODWWX3ooLSj57vbGJmeyv0ze7Btsxbs2H8aN4Z8Q19nB7oN/4QR2pp1FcQf4LJhTlSq3Dh67UHGJEfzh1Uj2EGpotuoAP546QajApfyVSclVa6jGBB0jSUky24e4JIRnvQYOJbT/zKFE/w+Y1iWRFLLy/sWc0gbJZuox3Ld4TgmntzGmb0dqLD14LSvTjFNMvBlfprJ/kqas/zStyedWzjQxet1vr98Knu69uK4v29nRIZk2n91YLa+evqBJFkYzz3+g6lu3YzNnbw4bt1JZkskKTFt/0z2aNuMLTr257SNIfzG15kObsP5iX5QJuIszXTZ6hTE88CyYXRSqug2ei0PxiQz+odVHNFBSZXbKAb8eIk3ogK59FUnKlWuHBUQxGslpvyn77vm7Jf07enMFg4u9Hr9fS6f2pOuvcbx79sjqDfRbvoPdmcLK0vad+jDGTtiWUjyXsIhLvVuS6XSmSPX/MTYOzQ5Z5Ck7tqXHPZ0Ww7flFRtYAKBQCB4nLBg9cs7AkE9kOJXo6fX9xgadhEf/Z/h5UyBQCAQCASCJ4MnY2uHQCAQCAQCgUDwgBGJtKDB6G7fRr6uANo7tW7BEggEAoFAIHhiEIm0oEFIaaex94w9Rn8wFq2idiH0prFneQgEAoFAIBA83og90gKBQCAQCAQCQSMQV6QFAoFAIBAIBIJGIBJpgUAgEAgEAoGgEYhEWiAQCAQCgUAgaAQikRYIBAKBQCAQCBqBSKQFAoFAIBAIBIJGIBJpgUAgEAgEAoGgEYhEWiAQCAQCgUAgaAQikRYIBAKBQCAQCBqBSKQFAoFAIBAIBIJGIBJpgUAgEAgEAoGgEYhEWiAQCAQCgUAgaAQikRYIBAKBQCAQCBrB/wdGxfj/cHcbLwAAAABJRU5ErkJggg==;" parent="1" vertex="1">
          <mxGeometry x="-30" y="-70" width="520" height="150" as="geometry" />
        </mxCell>
        <mxCell id="K0F5Ke0ie21A7ef-z0Ci-2" value="motador" style="whiteSpace=wrap;html=1;align=center;fillColor=#f0a30a;strokeColor=#BD7000;fontColor=#000000;" parent="1" vertex="1">
          <mxGeometry x="-50" y="220" width="90" height="40" as="geometry" />
        </mxCell>
        <mxCell id="K0F5Ke0ie21A7ef-z0Ci-3" value="modeloDormitorio" style="whiteSpace=wrap;html=1;align=center;fillColor=#f0a30a;strokeColor=#BD7000;fontColor=#000000;" parent="1" vertex="1">
          <mxGeometry x="290" y="220" width="120" height="40" as="geometry" />
        </mxCell>
        <mxCell id="K0F5Ke0ie21A7ef-z0Ci-5" value="monta" style="shape=rhombus;perimeter=rhombusPerimeter;whiteSpace=wrap;html=1;align=center;fillColor=#76608a;fontColor=#ffffff;strokeColor=#432D57;" parent="1" vertex="1">
          <mxGeometry x="120" y="220" width="90" height="40" as="geometry" />
        </mxCell>
        <mxCell id="K0F5Ke0ie21A7ef-z0Ci-6" value="" style="endArrow=none;html=1;rounded=0;exitX=0;exitY=0.5;exitDx=0;exitDy=0;entryX=1;entryY=0.5;entryDx=0;entryDy=0;" parent="1" source="K0F5Ke0ie21A7ef-z0Ci-5" target="K0F5Ke0ie21A7ef-z0Ci-2" edge="1">
          <mxGeometry relative="1" as="geometry">
            <mxPoint x="97" y="210" as="sourcePoint" />
            <mxPoint x="50" y="240" as="targetPoint" />
          </mxGeometry>
        </mxCell>
        <mxCell id="K0F5Ke0ie21A7ef-z0Ci-7" value="(1,N)" style="resizable=0;html=1;whiteSpace=wrap;align=right;verticalAlign=bottom;" parent="K0F5Ke0ie21A7ef-z0Ci-6" connectable="0" vertex="1">
          <mxGeometry x="1" relative="1" as="geometry">
            <mxPoint x="34" as="offset" />
          </mxGeometry>
        </mxCell>
        <mxCell id="K0F5Ke0ie21A7ef-z0Ci-8" value="" style="endArrow=none;html=1;rounded=0;exitX=1;exitY=0.5;exitDx=0;exitDy=0;entryX=0;entryY=0.5;entryDx=0;entryDy=0;" parent="1" source="K0F5Ke0ie21A7ef-z0Ci-5" target="K0F5Ke0ie21A7ef-z0Ci-3" edge="1">
          <mxGeometry relative="1" as="geometry">
            <mxPoint x="97" y="210" as="sourcePoint" />
            <mxPoint x="270" y="240" as="targetPoint" />
          </mxGeometry>
        </mxCell>
        <mxCell id="K0F5Ke0ie21A7ef-z0Ci-9" value="(1,M)" style="resizable=0;html=1;whiteSpace=wrap;align=right;verticalAlign=bottom;" parent="K0F5Ke0ie21A7ef-z0Ci-8" connectable="0" vertex="1">
          <mxGeometry x="1" relative="1" as="geometry">
            <mxPoint as="offset" />
          </mxGeometry>
        </mxCell>
        <mxCell id="K0F5Ke0ie21A7ef-z0Ci-12" value="" style="endArrow=none;html=1;rounded=0;exitX=0.5;exitY=0;exitDx=0;exitDy=0;" parent="1" source="K0F5Ke0ie21A7ef-z0Ci-5" target="K0F5Ke0ie21A7ef-z0Ci-13" edge="1">
          <mxGeometry relative="1" as="geometry">
            <mxPoint x="160" y="165" as="sourcePoint" />
            <mxPoint x="220" y="165" as="targetPoint" />
          </mxGeometry>
        </mxCell>
        <mxCell id="K0F5Ke0ie21A7ef-z0Ci-13" value="fechaMontaje" style="ellipse;whiteSpace=wrap;html=1;align=center;" parent="1" vertex="1">
          <mxGeometry x="187.5" y="160" width="85" height="30" as="geometry" />
        </mxCell>
        <mxCell id="K0F5Ke0ie21A7ef-z0Ci-14" value="" style="endArrow=none;html=1;rounded=0;exitX=0.75;exitY=0;exitDx=0;exitDy=0;" parent="1" source="K0F5Ke0ie21A7ef-z0Ci-3" target="K0F5Ke0ie21A7ef-z0Ci-15" edge="1">
          <mxGeometry relative="1" as="geometry">
            <mxPoint x="350" y="195" as="sourcePoint" />
            <mxPoint x="410" y="195" as="targetPoint" />
          </mxGeometry>
        </mxCell>
        <mxCell id="K0F5Ke0ie21A7ef-z0Ci-15" value="&lt;u&gt;codigoModelo&lt;/u&gt;" style="ellipse;whiteSpace=wrap;html=1;align=center;" parent="1" vertex="1">
          <mxGeometry x="370" y="170" width="85" height="30" as="geometry" />
        </mxCell>
        <mxCell id="K0F5Ke0ie21A7ef-z0Ci-16" value="" style="endArrow=none;html=1;rounded=0;exitX=0.551;exitY=-0.022;exitDx=0;exitDy=0;exitPerimeter=0;" parent="1" source="K0F5Ke0ie21A7ef-z0Ci-2" target="K0F5Ke0ie21A7ef-z0Ci-17" edge="1">
          <mxGeometry relative="1" as="geometry">
            <mxPoint y="175" as="sourcePoint" />
            <mxPoint x="60" y="175" as="targetPoint" />
          </mxGeometry>
        </mxCell>
        <mxCell id="K0F5Ke0ie21A7ef-z0Ci-17" value="&lt;u&gt;NIF&lt;/u&gt;" style="ellipse;whiteSpace=wrap;html=1;align=center;" parent="1" vertex="1">
          <mxGeometry x="-20" y="130" width="35" height="30" as="geometry" />
        </mxCell>
        <mxCell id="K0F5Ke0ie21A7ef-z0Ci-19" value="" style="endArrow=none;html=1;rounded=0;exitX=0.75;exitY=0;exitDx=0;exitDy=0;" parent="1" source="K0F5Ke0ie21A7ef-z0Ci-2" target="K0F5Ke0ie21A7ef-z0Ci-20" edge="1">
          <mxGeometry relative="1" as="geometry">
            <mxPoint x="20" y="175" as="sourcePoint" />
            <mxPoint x="80" y="175" as="targetPoint" />
          </mxGeometry>
        </mxCell>
        <mxCell id="K0F5Ke0ie21A7ef-z0Ci-20" value="nombre" style="ellipse;whiteSpace=wrap;html=1;align=center;" parent="1" vertex="1">
          <mxGeometry x="10" y="170" width="50" height="20" as="geometry" />
        </mxCell>
        <mxCell id="K0F5Ke0ie21A7ef-z0Ci-23" value="" style="endArrow=none;html=1;rounded=0;exitX=1;exitY=0;exitDx=0;exitDy=0;" parent="1" source="K0F5Ke0ie21A7ef-z0Ci-2" target="K0F5Ke0ie21A7ef-z0Ci-24" edge="1">
          <mxGeometry relative="1" as="geometry">
            <mxPoint x="65" y="205" as="sourcePoint" />
            <mxPoint x="125" y="205" as="targetPoint" />
          </mxGeometry>
        </mxCell>
        <mxCell id="K0F5Ke0ie21A7ef-z0Ci-24" value="direccion" style="ellipse;whiteSpace=wrap;html=1;align=center;" parent="1" vertex="1">
          <mxGeometry x="50" y="150" width="60" height="20" as="geometry" />
        </mxCell>
        <mxCell id="K0F5Ke0ie21A7ef-z0Ci-27" value="" style="endArrow=none;html=1;rounded=0;exitX=0.25;exitY=0;exitDx=0;exitDy=0;" parent="1" source="K0F5Ke0ie21A7ef-z0Ci-2" target="K0F5Ke0ie21A7ef-z0Ci-28" edge="1">
          <mxGeometry relative="1" as="geometry">
            <mxPoint x="-100" y="175" as="sourcePoint" />
            <mxPoint x="-40" y="175" as="targetPoint" />
          </mxGeometry>
        </mxCell>
        <mxCell id="K0F5Ke0ie21A7ef-z0Ci-28" value="telfContacto" style="ellipse;whiteSpace=wrap;html=1;align=center;" parent="1" vertex="1">
          <mxGeometry x="-90" y="170" width="75" height="20" as="geometry" />
        </mxCell>
        <mxCell id="K0F5Ke0ie21A7ef-z0Ci-29" value="" style="endArrow=none;html=1;rounded=0;exitX=0;exitY=0.5;exitDx=0;exitDy=0;" parent="1" source="K0F5Ke0ie21A7ef-z0Ci-2" target="K0F5Ke0ie21A7ef-z0Ci-30" edge="1">
          <mxGeometry relative="1" as="geometry">
            <mxPoint x="-100" y="295" as="sourcePoint" />
            <mxPoint x="-40" y="295" as="targetPoint" />
          </mxGeometry>
        </mxCell>
        <mxCell id="K0F5Ke0ie21A7ef-z0Ci-30" value="nDormitoriosXModelo" style="ellipse;whiteSpace=wrap;html=1;align=center;" parent="1" vertex="1">
          <mxGeometry x="-190" y="200" width="135" height="30" as="geometry" />
        </mxCell>
        <mxCell id="8ZqYSk8hnxJzeTWDB_P2-1" value="cliente" style="whiteSpace=wrap;html=1;align=center;fillColor=#f0a30a;strokeColor=#BD7000;fontColor=#000000;" vertex="1" parent="1">
          <mxGeometry x="-32.5" y="280" width="60" height="40" as="geometry" />
        </mxCell>
        <mxCell id="8ZqYSk8hnxJzeTWDB_P2-2" value="compra" style="shape=rhombus;perimeter=rhombusPerimeter;whiteSpace=wrap;html=1;align=center;fillColor=#76608a;fontColor=#ffffff;strokeColor=#432D57;" vertex="1" parent="1">
          <mxGeometry x="120" y="280" width="90" height="40" as="geometry" />
        </mxCell>
        <mxCell id="8ZqYSk8hnxJzeTWDB_P2-3" value="" style="endArrow=none;html=1;rounded=0;exitX=0;exitY=0.5;exitDx=0;exitDy=0;entryX=1;entryY=0.5;entryDx=0;entryDy=0;" edge="1" source="8ZqYSk8hnxJzeTWDB_P2-2" parent="1" target="8ZqYSk8hnxJzeTWDB_P2-1">
          <mxGeometry relative="1" as="geometry">
            <mxPoint x="97" y="270" as="sourcePoint" />
            <mxPoint x="50" y="300" as="targetPoint" />
          </mxGeometry>
        </mxCell>
        <mxCell id="8ZqYSk8hnxJzeTWDB_P2-4" value="(1,N)" style="resizable=0;html=1;whiteSpace=wrap;align=right;verticalAlign=bottom;" connectable="0" vertex="1" parent="8ZqYSk8hnxJzeTWDB_P2-3">
          <mxGeometry x="1" relative="1" as="geometry">
            <mxPoint x="34" as="offset" />
          </mxGeometry>
        </mxCell>
        <mxCell id="8ZqYSk8hnxJzeTWDB_P2-5" value="" style="endArrow=none;html=1;rounded=0;exitX=1;exitY=0.5;exitDx=0;exitDy=0;entryX=0.576;entryY=1.021;entryDx=0;entryDy=0;entryPerimeter=0;" edge="1" source="8ZqYSk8hnxJzeTWDB_P2-2" parent="1" target="K0F5Ke0ie21A7ef-z0Ci-3">
          <mxGeometry relative="1" as="geometry">
            <mxPoint x="97" y="270" as="sourcePoint" />
            <mxPoint x="270" y="300" as="targetPoint" />
          </mxGeometry>
        </mxCell>
        <mxCell id="8ZqYSk8hnxJzeTWDB_P2-6" value="(1,M)" style="resizable=0;html=1;whiteSpace=wrap;align=right;verticalAlign=bottom;" connectable="0" vertex="1" parent="8ZqYSk8hnxJzeTWDB_P2-5">
          <mxGeometry x="1" relative="1" as="geometry">
            <mxPoint y="29" as="offset" />
          </mxGeometry>
        </mxCell>
        <mxCell id="8ZqYSk8hnxJzeTWDB_P2-7" value="" style="endArrow=none;html=1;rounded=0;exitX=0.5;exitY=1;exitDx=0;exitDy=0;" edge="1" target="8ZqYSk8hnxJzeTWDB_P2-8" parent="1" source="8ZqYSk8hnxJzeTWDB_P2-2">
          <mxGeometry relative="1" as="geometry">
            <mxPoint x="180" y="355" as="sourcePoint" />
            <mxPoint x="240" y="355" as="targetPoint" />
          </mxGeometry>
        </mxCell>
        <mxCell id="8ZqYSk8hnxJzeTWDB_P2-8" value="frechaCompra" style="ellipse;whiteSpace=wrap;html=1;align=center;" vertex="1" parent="1">
          <mxGeometry x="187.5" y="340" width="85" height="30" as="geometry" />
        </mxCell>
      </root>
    </mxGraphModel>
  </diagram>
</mxfile>
